<svg xmlns="http://www.w3.org/2000/svg" fill="none" viewBox="0 0 150 42">
<g filter="url(#logo_svg__a)">
<path fill="#FBC04E" d="m40.533 19.29-.409-1.128a17.523 17.523 0 0 0-4.345-1.91c1.668 2.855 4.522 9.468-2.357 12.989a4.82 4.82 0 0 1-1.086 3.114 4.838 4.838 0 0 1-2.837 1.691 4.846 4.846 0 0 1-3.302-.152 4.832 4.832 0 0 1-2.433-2.233c-7.99.142-8.377-7.538-8.207-10.665a17.681 17.681 0 0 0-2.827 3.276l.293 1.978s-4.195 9.149 5.51 11.86c0 0-1.641-2.46-.245-4.227 0 0-.286 7.755 9.91 7.055 0 0-1.934-2.392-.579-4.078 0 0-.15 3.48 2.827 4.003a7.6 7.6 0 0 0 .892.082l.804-.544c2.37-1.869.579-4.86.579-4.86 2.002.85 1.437 3.875 1.437 3.875 9.31-4.214 5.374-10.875 5.374-10.875 2.043.89 1.791 3.84 1.791 3.84 7.274-7.028-.79-13.09-.79-13.09Z"/>
</g>
<g filter="url(#logo_svg__b)">
<path fill="#FBC04E" d="M46.458 3.603s-1.43 4.12-5.592 4.364c-7.968 0-10.788-9.38-18.927-7.116 3.405 2.086 3.405 3.806 2.615 4.948a3.168 3.168 0 0 1-4.087.999c-1.205-.68-2.043-2.162.048-5.587-8.275 1.726-6.457 11.337-13.527 15.007-3.807 1.7-6.98-1.305-6.98-1.305-.314 9.203 9.834 9.652 9.834 9.652 4.155-9.278 13.895-11.168 13.895-11.168l.497-.115.497-.122s9.535-2.807 17.484 3.527c-.034 0 8.766-5.057 4.243-13.084Z"/>
</g>
<path fill="#fff" d="M33.224 18.89a16.97 16.97 0 0 0-1.062-2.985 20.751 20.751 0 0 0-6.375.585l-.498.13-.497.115a20.979 20.979 0 0 0-6.498 2.752c-.02 1.09.098 2.177.355 3.236.476 2.012 1.273 3.446 2.39 4.302a4.248 4.248 0 0 0 4.087.625c.7-.18 1.315-.595 1.743-1.175a2.857 2.857 0 0 0 .498-2.04l.347.327c.324.255.694.446 1.09.564.502.177 1.042.22 1.566.122a4.214 4.214 0 0 0 1.696-.68 3.088 3.088 0 0 0 1.029-1.128c.226-.465.369-.967.422-1.482a7.39 7.39 0 0 0 0-1.644 10.185 10.185 0 0 0-.293-1.625Zm-8.357 4.268a1.556 1.556 0 0 1-1.13 1.012 1.481 1.481 0 0 1-1.363-.367 2.927 2.927 0 0 1-.824-1.413 6.262 6.262 0 0 1-.19-2.121l3.003-.632c.252.556.443 1.137.572 1.733.13.592.106 1.207-.068 1.788Zm4.666-1.068a1.494 1.494 0 0 1-1.649-.68 4.547 4.547 0 0 1-.865-2.392c1.805-.394 2.786-.632 2.936-.68.242.465.423.958.538 1.469.263 1.31-.055 2.07-.954 2.284h-.006Zm26.18-3.244c0-.35.004-.909.013-1.673.018-.774.04-1.674.068-2.7.027-1.025.054-2.1.08-3.225.028-1.133.05-2.24.068-3.32.027-1.088.054-2.082.081-2.982.027-.9.045-1.628.054-2.186.018-.558.027-.863.027-.917.54-.036 1.17-.077 1.89-.122a82.914 82.914 0 0 1 2.28-.108 50.02 50.02 0 0 1 2.267-.054c1.08 0 2.034.135 2.861.405.828.27 1.476.71 1.943 1.323.477.602.716 1.399.716 2.388 0 .729-.171 1.354-.513 1.876a4.083 4.083 0 0 1-1.242 1.241c-.486.297-.94.486-1.363.567h.149c.054 0 .117.005.189.014.81.054 1.516.252 2.118.593a3.72 3.72 0 0 1 1.404 1.364c.333.566.5 1.219.5 1.956 0 1.224-.235 2.218-.703 2.983-.467.764-1.133 1.358-1.997 1.78-.863.415-1.898.703-3.104.865-1.196.162-2.537.242-4.021.242-.72 0-1.413-.022-2.078-.067a11.614 11.614 0 0 1-1.687-.243Zm4.98-4.197h.701c.396 0 .792-.027 1.188-.08.396-.055.76-.145 1.093-.27.342-.127.616-.289.823-.486.207-.207.31-.468.31-.783 0-.198-.04-.382-.121-.553a1.015 1.015 0 0 0-.391-.446c-.18-.126-.432-.22-.756-.283a6.384 6.384 0 0 0-1.215-.095c-.153 0-.324.005-.513.014-.188 0-.386.009-.593.027a7.221 7.221 0 0 0-.621.054l.095 2.901Zm-.149-6.734c.306 0 .562-.004.77-.013.206-.018.39-.045.553-.081a3.566 3.566 0 0 0 1.47-.419c.45-.242.675-.598.675-1.066 0-.422-.157-.746-.472-.971-.315-.234-.706-.351-1.174-.351-.28 0-.598.018-.958.054-.351.036-.666.072-.945.108l.081 2.74ZM78.8 19.872c-1.926 0-3.5-.405-4.724-1.215-1.214-.81-2.11-1.912-2.685-3.306-.576-1.404-.864-2.987-.864-4.75 0-1.782.328-3.365.985-4.75.657-1.395 1.597-2.488 2.82-3.28 1.233-.8 2.722-1.2 4.467-1.2 1.449 0 2.695.233 3.738.701 1.044.459 1.899 1.107 2.564 1.943.675.828 1.174 1.8 1.498 2.915.324 1.116.486 2.321.486 3.617 0 1.214-.162 2.384-.486 3.508a8.807 8.807 0 0 1-1.47 2.983c-.666.872-1.526 1.565-2.578 2.078-1.044.504-2.294.756-3.752.756ZM78.866 15c.828 0 1.525-.234 2.091-.702.567-.467.995-1.08 1.282-1.835.297-.756.446-1.56.446-2.415 0-.63-.063-1.229-.19-1.795a4.356 4.356 0 0 0-.593-1.498 2.993 2.993 0 0 0-1.106-1.04c-.46-.251-1.026-.377-1.7-.377-.73 0-1.377.234-1.944.702-.558.458-.999 1.08-1.323 1.862-.314.782-.472 1.646-.472 2.59 0 .864.108 1.638.324 2.322.216.675.58 1.21 1.093 1.606.522.387 1.22.58 2.092.58Zm17.161 4.575c-1.62 0-2.892-.342-3.82-1.026-.917-.692-1.605-1.687-2.064-2.982-.45-1.26-.728-2.803-.837-4.629a106.837 106.837 0 0 1-.161-6.234c0-.288.004-.58.013-.878.01-.297.014-.598.014-.904l.027-.917c.018-.306.031-.603.04-.891.423-.036.846-.068 1.269-.095a14.34 14.34 0 0 1 1.214-.054c.495 0 .994.018 1.498.054.504.027.958.063 1.363.108a58.048 58.048 0 0 0-.162 2.133 103.311 103.311 0 0 0-.108 4.683c0 .872.023 1.641.068 2.307.045.666.121 1.228.229 1.687.144.612.35 1.061.62 1.35.28.287.64.431 1.08.431.54 0 .95-.175 1.228-.526.288-.36.482-.85.58-1.471.109-.63.163-1.345.163-2.146a174.919 174.919 0 0 0-.122-5.33 63.382 63.382 0 0 0-.094-1.795c-.027-.53-.059-.927-.095-1.188.405 0 .873.018 1.404.054.53.027 1.057.063 1.579.108.521.036.976.077 1.363.122a6.8 6.8 0 0 1 .728.108c.072.468.131.967.176 1.498.045.53.081 1.08.108 1.646a41.073 41.073 0 0 1-.257 6.788c-.189 1.574-.544 2.964-1.066 4.17-.513 1.196-1.255 2.132-2.227 2.807-.962.674-2.213 1.012-3.751 1.012Zm14.924-.297c-.621 0-1.273-.023-1.957-.068a76.61 76.61 0 0 1-1.876-.121 74.956 74.956 0 0 1-1.322-.135c.009-.072.013-.279.013-.62v-1.337c.009-.549.014-1.165.014-1.848v-2.173c.009-.765.013-1.539.013-2.321 0-1.07-.004-2.141-.013-3.212-.009-1.08-.027-2.083-.054-3.01a44.19 44.19 0 0 0-.095-2.32c.189 0 .486.009.891.026.414.01.868.032 1.363.068.495.027.976.063 1.444.108.477.045.881.09 1.214.135a42.353 42.353 0 0 1 1.593 2.388 55.35 55.35 0 0 1 1.403 2.403c.441.8.859 1.61 1.255 2.429a44.84 44.84 0 0 1 1.12 2.51l-.526-9.811c.288 0 .648.013 1.08.04.44.027.895.063 1.363.108.476.036.908.081 1.295.135a5.7 5.7 0 0 1 .891.176c.036.342.067.728.094 1.16.036.423.063.882.081 1.377l.054 1.525c.018.521.027 1.052.027 1.592.009.54.014 1.07.014 1.593 0 1.007-.014 2.01-.041 3.009-.018.99-.049 1.907-.094 2.753-.045.845-.095 1.56-.149 2.145-.054.585-.112.968-.175 1.148l-.877.027a36.166 36.166 0 0 1-2.362-.014 9.95 9.95 0 0 1-1.134-.122l-.364-.688a53.886 53.886 0 0 0-.648-1.214c-.252-.477-.535-1.008-.85-1.593-.306-.584-.63-1.192-.971-1.821-.342-.64-.689-1.278-1.04-1.917a229.25 229.25 0 0 0-.998-1.848c.036.242.063.598.081 1.066.027.467.049 1.003.067 1.605.027.603.05 1.233.068 1.89.027.648.045 1.282.054 1.903.018.62.031 1.183.04 1.686.009.495.014.891.014 1.188Zm10.934-13.616a10.65 10.65 0 0 1-.135-.931 48.436 48.436 0 0 1-.095-1.296 115.43 115.43 0 0 0-.054-1.228c-.009-.36-.013-.598-.013-.715a91.345 91.345 0 0 1 3.427-.203 92.086 92.086 0 0 1 3.887-.08c1.008 0 1.988.022 2.942.067a24.01 24.01 0 0 1 2.618.23c0 .845-.032 1.632-.095 2.36-.063.72-.139 1.256-.229 1.607h-.688a32.772 32.772 0 0 0-.985-.014c-.36-.009-.716-.013-1.066-.013a96.643 96.643 0 0 1-.891-.027c.018.333.04.818.067 1.457l.095 2.173c.045.81.09 1.66.135 2.55.045.882.085 1.75.121 2.605l.122 2.334c.036.702.067 1.278.094 1.728.027.44.041.697.041.769a24.42 24.42 0 0 1-1.593.175 47.256 47.256 0 0 1-3.495.162 133.837 133.837 0 0 1-.148-4.21l-.054-2.564a260.245 260.245 0 0 1-.054-4.912V6.512l.027-.999c-.297.027-.612.05-.945.068-.324.009-.657.022-.999.04-.341.01-.683.018-1.025.027-.342 0-.679.005-1.012.014Zm18.839 5.816a33.623 33.623 0 0 1-.863-1.228c-.288-.441-.585-.9-.891-1.377-.297-.485-.594-.99-.891-1.511a65.67 65.67 0 0 1-.89-1.62 43.518 43.518 0 0 1-.864-1.713 39.671 39.671 0 0 1-.796-1.782c.935-.36 1.831-.602 2.685-.728.855-.135 1.548-.203 2.078-.203.072.171.176.423.311.756l.459 1.134c.18.413.364.84.553 1.282.198.431.382.845.553 1.241.18.387.338.715.473.985.081-.198.202-.463.364-.796l.54-1.107c.207-.413.418-.827.634-1.241.216-.423.418-.814.607-1.174a9.89 9.89 0 0 1 .5-.864 7.203 7.203 0 0 1 1.659.284c.567.162 1.098.35 1.593.566.504.216.931.428 1.282.635a29.44 29.44 0 0 0-1.417 2.078 76.807 76.807 0 0 0-3.401 6.032c.018.549.036 1.134.054 1.754.027.621.045 1.206.054 1.755a59.767 59.767 0 0 1 0 2.578v1.12c0 .314-.004.517-.013.607-.117.053-.369.099-.756.135-.378.035-.801.053-1.269.053-.494 0-.985-.018-1.471-.053a11.982 11.982 0 0 1-1.201-.162c0-.477.009-1.049.027-1.714.018-.666.041-1.354.068-2.065.036-.71.072-1.386.108-2.024.045-.648.085-1.192.121-1.633Z"/>
<path fill="#FBC04E" d="M62.028 41.212a9.91 9.91 0 0 1-1.943-.202 9.612 9.612 0 0 1-1.997-.608 8.311 8.311 0 0 1-1.85-1.12 6.344 6.344 0 0 1-1.443-1.673c.054-.099.207-.27.459-.513a24.186 24.186 0 0 1 1.93-1.633c.341-.26.616-.445.823-.553.333.36.66.697.985 1.012.333.306.675.576 1.025.81.351.234.716.418 1.093.553a3.9 3.9 0 0 0 1.215.189c.45 0 .805-.08 1.066-.243a1.41 1.41 0 0 0 .553-.648c.117-.26.176-.53.176-.81 0-.206-.05-.413-.149-.62a2.027 2.027 0 0 0-.472-.607 4.473 4.473 0 0 0-.864-.621 9.094 9.094 0 0 0-1.282-.607 35.505 35.505 0 0 1-2.968-1.363c-.9-.477-1.62-1.048-2.16-1.714-.53-.666-.796-1.503-.796-2.51 0-1.08.302-1.984.904-2.713.612-.737 1.408-1.295 2.389-1.673a8.852 8.852 0 0 1 3.185-.567c.8 0 1.588.081 2.361.243a8.43 8.43 0 0 1 2.227.796c.71.36 1.345.855 1.903 1.485a9.698 9.698 0 0 1-.715.863c-.324.37-.67.738-1.04 1.107-.36.369-.67.666-.93.89a6.552 6.552 0 0 0-1.242-.957 6.26 6.26 0 0 0-1.323-.621 3.888 3.888 0 0 0-1.228-.216c-.468 0-.877.094-1.228.283-.35.19-.526.486-.526.89 0 .172.036.334.108.487.08.153.198.292.35.418.154.126.343.247.567.364.225.117.49.225.797.324a48.35 48.35 0 0 1 2.645.999c.836.342 1.574.738 2.213 1.187a4.806 4.806 0 0 1 1.511 1.62c.36.639.54 1.417.54 2.334 0 .9-.17 1.714-.513 2.443a5.445 5.445 0 0 1-1.444 1.876c-.62.512-1.35.913-2.186 1.2-.828.28-1.736.42-2.726.42Zm7.538-13.752c-.045-.215-.09-.525-.135-.93a48.517 48.517 0 0 1-.095-1.296c-.018-.459-.036-.868-.054-1.228-.009-.36-.013-.598-.013-.715a91.384 91.384 0 0 1 3.427-.202 92.028 92.028 0 0 1 3.887-.081c1.008 0 1.988.022 2.942.067a24.25 24.25 0 0 1 2.618.23c0 .845-.032 1.632-.095 2.361-.063.72-.14 1.255-.23 1.606h-.687a32.736 32.736 0 0 0-.985-.013c-.36-.01-.716-.014-1.067-.014a96.51 96.51 0 0 1-.89-.027c.018.333.04.819.067 1.457l.095 2.173c.045.81.09 1.66.135 2.55.045.882.085 1.75.121 2.605l.122 2.335c.036.701.067 1.277.094 1.727.027.44.04.697.04.77a24.54 24.54 0 0 1-1.592.175 47.067 47.067 0 0 1-3.495.162 133.769 133.769 0 0 1-.148-4.21l-.054-2.565a259.928 259.928 0 0 1-.054-4.912v-1.174l.027-.998c-.297.026-.612.049-.945.067-.324.009-.657.022-.999.04-.341.01-.683.018-1.025.027-.342 0-.68.005-1.012.014Zm17.475 13.725c-.234 0-.571-.009-1.012-.027a103.2 103.2 0 0 1-1.444-.04l-1.498-.054a33.708 33.708 0 0 1-1.2-.04c.098-.586.238-1.314.418-2.187.18-.873.386-1.83.62-2.874.234-1.053.482-2.146.743-3.28.27-1.133.54-2.258.81-3.373.278-1.125.553-2.195.822-3.212.27-1.026.518-1.939.743-2.74a66.83 66.83 0 0 1 2.914-.296 30.253 30.253 0 0 1 2.659-.122c.522 0 1.034.018 1.538.054.504.027 1.012.072 1.525.135.18.792.36 1.687.54 2.685.18 1 .364 2.187.553 3.563.19 1.368.378 2.991.567 4.872.198 1.88.396 4.098.594 6.653-.333.045-.81.09-1.43.135-.621.045-1.27.08-1.944.108-.675.027-1.273.04-1.795.04-.018-.26-.036-.54-.054-.837a400.96 400.96 0 0 1-.054-1.97l-.027-1.012a37.01 37.01 0 0 1-.013-.971 28.67 28.67 0 0 0-.89.04 29.07 29.07 0 0 0-.905.04c-.297.01-.576.027-.837.054a10.66 10.66 0 0 0-1.12.135c-.126.558-.243 1.12-.35 1.687a55.484 55.484 0 0 0-.284 1.58c-.08.494-.144.912-.189 1.254Zm1.444-8.745c.162-.026.436-.058.823-.094.396-.036.805-.063 1.228-.08.423-.028.747-.041.972-.041a75.875 75.875 0 0 1-.04-.999c-.019-.495-.041-1.04-.068-1.633-.027-.594-.05-1.129-.068-1.606-.017-.486-.035-.8-.053-.944-.126 0-.32.009-.58.027a17.38 17.38 0 0 0-.756.04l-.5.04a270.169 270.169 0 0 0-.5 2.604 72.787 72.787 0 0 1-.269 1.512 55.67 55.67 0 0 0-.189 1.175Zm10.83 8.88c-.054-1.017-.121-2.258-.202-3.724l-.257-4.697c-.08-1.673-.161-3.333-.242-4.98-.072-1.646-.14-3.153-.203-4.52.37-.036.841-.072 1.417-.108a78.36 78.36 0 0 1 1.862-.122c.675-.035 1.332-.067 1.971-.094.647-.027 1.219-.04 1.714-.04.701 0 1.407.067 2.118.202a6.33 6.33 0 0 1 1.984.688 3.693 3.693 0 0 1 1.444 1.39c.369.603.553 1.386.553 2.348 0 .927-.243 1.804-.729 2.632-.476.818-1.093 1.421-1.848 1.808.207.387.436.855.688 1.404.252.548.504 1.129.756 1.74.252.612.494 1.22.728 1.822.234.594.441 1.138.621 1.633.18.495.315.89.405 1.188-.297.18-.693.35-1.188.512-.494.162-1.003.306-1.525.432a26.237 26.237 0 0 1-2.01.419 19.528 19.528 0 0 0-.297-1.31 53.093 53.093 0 0 0-.513-1.862 292.26 292.26 0 0 0-.567-1.997 76.98 76.98 0 0 0-.526-1.781 22.753 22.753 0 0 0-.378-1.16c-.162.026-.319.053-.472.08a3.564 3.564 0 0 1-.419.054c-.134.01-.269.018-.404.027a73.362 73.362 0 0 1 .243 2.685c.045.603.085 1.224.121 1.863.045.63.081 1.223.108 1.781.027.549.04 1.003.04 1.363-.404.09-.895.158-1.471.203-.566.045-1.16.076-1.781.094-.621.018-1.2.027-1.74.027Zm4.049-11.619a10.997 10.997 0 0 0 1.714-.135c.485-.08.89-.193 1.214-.337.324-.144.562-.333.715-.567a1.52 1.52 0 0 0 .243-.864c0-.405-.099-.697-.297-.877-.198-.18-.476-.292-.836-.337a8.79 8.79 0 0 0-1.282-.081 9.058 9.058 0 0 0-.985.054c-.162.018-.315.036-.459.054a5.827 5.827 0 0 0-.311.027c.018.153.036.337.054.553.018.207.041.432.068.675.027.234.049.468.067.701.018.234.036.45.054.648.018.198.032.36.041.486Zm16.149 11.511a9.903 9.903 0 0 1-1.943-.202 9.62 9.62 0 0 1-1.998-.608 8.308 8.308 0 0 1-1.848-1.12 6.324 6.324 0 0 1-1.444-1.673c.054-.099.207-.27.458-.513.261-.252.563-.522.905-.81.35-.296.692-.57 1.025-.823a6.31 6.31 0 0 1 .823-.553c.333.36.662.697.986 1.012a8.34 8.34 0 0 0 1.025.81c.351.234.715.418 1.093.553a3.9 3.9 0 0 0 1.215.189c.45 0 .805-.08 1.066-.243a1.41 1.41 0 0 0 .553-.648c.117-.26.176-.53.176-.81 0-.206-.05-.413-.149-.62a2.024 2.024 0 0 0-.472-.607 4.476 4.476 0 0 0-.864-.621 9.089 9.089 0 0 0-1.282-.607 35.832 35.832 0 0 1-2.969-1.363c-.899-.477-1.619-1.048-2.159-1.714-.531-.666-.796-1.503-.796-2.51 0-1.08.301-1.984.904-2.713.612-.737 1.408-1.295 2.389-1.673a8.847 8.847 0 0 1 3.184-.567c.801 0 1.588.081 2.362.243a8.433 8.433 0 0 1 2.227.796 6.38 6.38 0 0 1 1.902 1.485 9.653 9.653 0 0 1-.715.863c-.324.37-.67.738-1.039 1.107-.36.369-.67.666-.931.89a6.555 6.555 0 0 0-1.242-.957 6.233 6.233 0 0 0-1.322-.621 3.888 3.888 0 0 0-1.228-.216c-.468 0-.877.094-1.228.283-.351.19-.526.486-.526.89 0 .172.036.334.108.487.081.153.197.292.35.418.153.126.342.247.567.364.225.117.49.225.796.324a48.12 48.12 0 0 1 2.645.999c.837.342 1.575.738 2.214 1.187a4.806 4.806 0 0 1 1.511 1.62c.36.639.54 1.417.54 2.334 0 .9-.171 1.714-.513 2.443a5.443 5.443 0 0 1-1.444 1.876 6.95 6.95 0 0 1-2.186 1.2c-.828.28-1.737.42-2.726.42Z"/>
<defs>
<filter id="logo_svg__a" width="32.242" height="25.731" x="12.121" y="15.252" color-interpolation-filters="sRGB" filterUnits="userSpaceOnUse">
<feFlood flood-opacity="0" result="BackgroundImageFix"/>
<feBlend in="SourceGraphic" in2="BackgroundImageFix" result="shape"/>
<feColorMatrix in="SourceAlpha" result="hardAlpha" values="0 0 0 0 0 0 0 0 0 0 0 0 0 0 0 0 0 0 127 0"/>
<feOffset dy="-4"/>
<feGaussianBlur stdDeviation=".5"/>
<feComposite in2="hardAlpha" k2="-1" k3="1" operator="arithmetic"/>
<feColorMatrix values="0 0 0 0 0.427451 0 0 0 0 0.223529 0 0 0 0 0.0470588 0 0 0 0.53 0"/>
<feBlend in2="shape" result="effect1_innerShadow_10600_142916"/>
</filter>
<filter id="logo_svg__b" width="47.751" height="25.066" x="0" y="-.502" color-interpolation-filters="sRGB" filterUnits="userSpaceOnUse">
<feFlood flood-opacity="0" result="BackgroundImageFix"/>
<feBlend in="SourceGraphic" in2="BackgroundImageFix" result="shape"/>
<feColorMatrix in="SourceAlpha" result="hardAlpha" values="0 0 0 0 0 0 0 0 0 0 0 0 0 0 0 0 0 0 127 0"/>
<feOffset dy="-4"/>
<feGaussianBlur stdDeviation=".5"/>
<feComposite in2="hardAlpha" k2="-1" k3="1" operator="arithmetic"/>
<feColorMatrix values="0 0 0 0 0.427451 0 0 0 0 0.223529 0 0 0 0 0.0470588 0 0 0 0.16 0"/>
<feBlend in2="shape" result="effect1_innerShadow_10600_142916"/>
</filter>
</defs>
</svg>
