<?xml version="1.0" encoding="utf-8"?>
<svg xmlns="http://www.w3.org/2000/svg" data-name="Layer 2" id="Layer_2" viewBox="0 0 321 93.59">
  <defs>
    <style>
      .cls-1 {
        fill: #fff;
      }

      .cls-2 {
        fill: #e30e34;
      }
    </style>
  </defs>
  <g data-name="Layer 1" id="Layer_1-2">
    <g>
      <g>
        <path class="cls-1" d="m116.95,67.85h-6.65c-3.22,0-5.7-.85-7.45-2.56-1.75-1.71-2.62-4.17-2.62-7.39v-19.35c0-3.21.87-5.68,2.62-7.39,1.75-1.71,4.23-2.56,7.45-2.56h6.65c3.17,0,5.65.87,7.42,2.59,1.77,1.73,2.66,4.18,2.66,7.36v2.87c0,.9-.45,1.34-1.34,1.34h-5.13c-.85,0-1.28-.45-1.28-1.34v-2.5c0-1.3-.27-2.23-.82-2.78-.55-.55-1.48-.82-2.78-.82h-4.15c-1.26,0-2.17.28-2.72.82-.55.55-.82,1.48-.82,2.78v18.62c0,1.3.27,2.23.82,2.78.55.55,1.46.82,2.72.82h4.15c1.3,0,2.23-.28,2.78-.82.55-.55.82-1.48.82-2.78v-2.5c0-.9.43-1.34,1.28-1.34h5.13c.89,0,1.34.45,1.34,1.34v2.87c0,3.17-.88,5.63-2.66,7.36-1.77,1.73-4.24,2.59-7.42,2.59Z"/>
        <path class="cls-1" d="m145.22,67.85h-1.47c-3.22,0-5.7-.85-7.45-2.56-1.75-1.71-2.63-4.17-2.63-7.39v-11.23c0-3.21.88-5.68,2.63-7.39,1.75-1.71,4.23-2.56,7.45-2.56h14.1c.89,0,1.34.43,1.34,1.28v28.57c0,.85-.45,1.28-1.34,1.28h-5.13c-.85,0-1.28-.43-1.28-1.28v-2.01h-.24c-.45,1.1-1.24,1.92-2.38,2.47-1.14.55-2.34.82-3.6.82Zm6.23-11.36v-12.39c0-.45-.24-.67-.73-.67h-5.74c-1.3,0-2.22.27-2.75.82-.53.55-.79,1.48-.79,2.78v10.5c0,1.3.26,2.23.79,2.78.53.55,1.44.82,2.75.82h2.26c2.81,0,4.21-1.55,4.21-4.64Z"/>
        <path class="cls-1" d="m178.92,67.85h-11.6c-.81,0-1.22-.43-1.22-1.28v-3.91c0-.45.08-.76.24-.95.16-.18.49-.28.98-.28h10.2c1.99,0,2.99-.61,2.99-1.83v-.31c0-.98-.83-1.91-2.5-2.81l-6.04-3.36c-2.08-1.06-3.6-2.2-4.58-3.42-.98-1.22-1.47-2.79-1.47-4.7,0-2.85.75-4.95,2.26-6.29,1.5-1.34,3.87-2.02,7.08-2.02h10.2c.81,0,1.22.43,1.22,1.28v3.97c0,.45-.08.76-.24.95-.16.18-.49.28-.98.28h-8.49c-2,0-2.99.51-2.99,1.53v.3c0,.9.88,1.81,2.62,2.75l6.17,3.66c2.12,1.14,3.6,2.31,4.46,3.51.85,1.2,1.28,2.78,1.28,4.73,0,5.46-3.2,8.18-9.59,8.18Z"/>
        <path class="cls-1" d="m218.06,67.85h-13.49c-3.22,0-5.7-.85-7.45-2.56-1.75-1.71-2.63-4.17-2.63-7.39v-11.23c0-3.21.88-5.68,2.63-7.39,1.75-1.71,4.23-2.56,7.45-2.56h4.82c3.21,0,5.7.86,7.45,2.56,1.75,1.71,2.63,4.17,2.63,7.39v7.75c0,.86-.43,1.28-1.28,1.28h-15.33c-.49,0-.73.22-.73.67v1.34c0,1.26.27,2.17.82,2.72s1.47.82,2.78.82h12.33c.85,0,1.28.45,1.28,1.34v4.03c0,.45-.09.76-.27.95s-.52.27-1.01.27Zm-15.2-17.34h8.3c.45,0,.67-.22.67-.67v-2.93c0-1.3-.26-2.22-.79-2.75-.53-.53-1.45-.79-2.75-.79h-2.56c-1.3,0-2.22.27-2.75.79s-.79,1.45-.79,2.75v2.93c0,.45.22.67.67.67Z"/>
        <path class="cls-2" d="m233.57,67.85h-5.19c-.85,0-1.28-.43-1.28-1.28V29.87c0-.85.43-1.28,1.28-1.28h5.19c.85,0,1.28.43,1.28,1.28v14.35c0,.45.24.67.73.67h10.32c.45,0,.67-.22.67-.67v-14.35c0-.85.43-1.28,1.28-1.28h5.19c.86,0,1.28.43,1.28,1.28v36.69c0,.85-.43,1.28-1.28,1.28h-5.19c-.85,0-1.28-.43-1.28-1.28v-14.29c0-.45-.22-.67-.67-.67h-10.32c-.49,0-.73.22-.73.67v14.29c0,.85-.43,1.28-1.28,1.28Z"/>
        <path class="cls-2" d="m274.11,67.85h-2.02c-3.13,0-5.5-.85-7.11-2.56-1.61-1.71-2.41-4.17-2.41-7.39v-19.9c0-.85.43-1.28,1.28-1.28h5.19c.86,0,1.28.43,1.28,1.28v19.54c0,1.3.28,2.23.82,2.78.55.55,1.46.82,2.72.82h2.26c2.81,0,4.21-1.55,4.21-4.64v-18.5c0-.85.43-1.28,1.28-1.28h5.13c.9,0,1.34.43,1.34,1.28v28.57c0,.85-.45,1.28-1.34,1.28h-5.13c-.86,0-1.28-.43-1.28-1.28v-2.01h-.24c-.45,1.1-1.24,1.92-2.38,2.47s-2.34.82-3.6.82Z"/>
        <path class="cls-2" d="m307.02,66.44h-2.01c-3.13,0-5.5-.85-7.11-2.56-1.61-1.71-2.41-4.17-2.41-7.39v-9.83c0-3.21.88-5.68,2.62-7.39,1.75-1.71,4.23-2.56,7.45-2.56h14.1c.9,0,1.34.43,1.34,1.28v30.1c0,3.17-.89,5.62-2.66,7.33-1.77,1.71-4.24,2.56-7.42,2.56h-11.72c-.49,0-.82-.09-1.01-.27s-.27-.5-.27-.95v-4.21c0-.85.43-1.28,1.28-1.28h10.44c1.3,0,2.23-.27,2.78-.82.55-.55.82-1.46.82-2.72v-4.64h-.25c-.45,1.1-1.24,1.93-2.38,2.5-1.14.57-2.34.85-3.6.85Zm6.23-11.36v-10.99c0-.45-.25-.67-.73-.67h-5.74c-1.3,0-2.22.27-2.75.82-.53.55-.79,1.48-.79,2.78v9.1c0,1.3.26,2.22.79,2.75.53.53,1.44.79,2.75.79h2.26c2.81,0,4.21-1.53,4.21-4.58Z"/>
      </g>
      <path class="cls-1" d="m33.02,47.69c1.86,1.07,3.35,3.67,3.35,5.8l-.03,9.27c0,2.13-1.51,2.99-3.37,1.92l-20.58-11.88-.02,7.72,20.58,11.88c1.86,1.07,3.35,3.66,3.35,5.8l-.03,9.26c0,2.14-1.51,2.99-3.37,1.92L3.35,72.3C1.5,71.24,0,68.64,0,66.51l.1-33.96c0-2.13,1.52-2.99,3.37-1.92l29.55,17.06Z"/>
      <path class="cls-2" d="m80.11,29.68c0-3.32-1.77-6.38-4.65-8.04L39.4.81c-1.86-1.07-4.85-1.08-6.7,0l-8,4.65c-1.85,1.07-1.84,2.81.02,3.89l35.94,20.71c2.86,1.61,4.64,4.64,4.65,7.92l.06,18.72-6.72,3.88s-.08-18.66-.1-18.82c-.09-3.22-1.83-6.18-4.63-7.8L18.05,13.22c-1.86-1.07-4.87-1.07-6.7,0l-8.01,4.66c-1.84,1.07-1.83,2.81.03,3.88l35.75,20.61c2.86,1.61,4.63,4.64,4.65,7.92l.17,40.93c0,2.13,1.51,2.99,3.37,1.92l8.06-4.65c1.86-1.07,3.35-3.66,3.35-5.8l-.04-13.55,6.72-3.88.04,13.55c0,2.13,1.52,2.99,3.37,1.92l8.06-4.66c1.85-1.07,3.35-3.66,3.35-5.8l-.1-40.58Z"/>
    </g>
  </g>
</svg>