<svg width="183" height="36" viewBox="0 0 183 36" fill="none" xmlns="http://www.w3.org/2000/svg">
<path fill-rule="evenodd" clip-rule="evenodd" d="M13.4128 7.80566C13.151 7.80566 12.8918 7.85786 12.6504 7.95919C12.4089 8.06052 12.1902 8.20896 12.0068 8.39583C11.6289 8.78022 11.4167 9.29814 11.4167 9.83717C11.4167 10.3759 11.6282 10.8932 12.0058 11.2775C12.0056 11.2773 12.0059 11.2777 12.0058 11.2775L16.0008 15.3231L19.9953 11.2781C19.9951 11.2782 19.9955 11.2779 19.9953 11.2781C20.3728 10.8937 20.5849 10.3759 20.5849 9.83717C20.5849 9.29814 20.3732 8.78068 19.9953 8.39629C19.8119 8.20942 19.5927 8.06052 19.3512 7.95919C19.1098 7.85786 18.8506 7.80566 18.5888 7.80566C18.327 7.80566 18.0678 7.85786 17.8264 7.95919C17.5849 8.06052 17.3662 8.20896 17.1828 8.39583C17.1622 8.41681 17.1404 8.43656 17.1175 8.45498L16.4708 8.97498C16.1963 9.19568 15.8053 9.19568 15.5308 8.97498L14.8841 8.45498C14.8612 8.43656 14.8394 8.41681 14.8188 8.39583C14.6355 8.20896 14.4167 8.06052 14.1752 7.95919C13.9338 7.85786 13.6746 7.80566 13.4128 7.80566ZM17.0581 16.3872L18.67 17.9991L22.7263 13.9935L22.7276 13.9923C23.3925 13.3386 24.2876 12.9723 25.22 12.9723C26.1522 12.9723 27.0471 13.3385 27.712 13.9918C28.0411 14.3149 28.3026 14.7003 28.4811 15.1255C28.6596 15.5507 28.7515 16.0073 28.7515 16.4685C28.7515 16.9296 28.6596 17.3862 28.4811 17.8114C28.3086 18.2223 28.0587 18.5959 27.7452 18.9121L27.6291 19.0565L27.7452 19.2008C28.0587 19.517 28.3086 19.8906 28.4811 20.3015C28.6596 20.7267 28.7515 21.1833 28.7515 21.6445C28.7515 22.1056 28.6596 22.5622 28.4811 22.9874C28.3026 23.4127 28.0411 23.7981 27.712 24.1211C27.0471 24.7745 26.1522 25.1406 25.22 25.1406C24.2876 25.1406 23.3925 24.7743 22.7276 24.1206L22.7263 24.1195L18.67 20.1138L17.0581 21.7257L21.065 25.7832C21.7186 26.4481 22.0849 27.3432 22.0849 28.2757C22.0849 29.2079 21.7188 30.1028 21.0654 30.7677C20.7424 31.0968 20.357 31.3583 19.9318 31.5368C19.5065 31.7152 19.05 31.8072 18.5888 31.8072C18.1276 31.8072 17.6711 31.7152 17.2458 31.5368C16.835 31.3643 16.4613 31.1144 16.1452 30.8008L16.0008 30.6847L15.8564 30.8008C15.5403 31.1144 15.1666 31.3643 14.7558 31.5368C14.3305 31.7152 13.874 31.8072 13.4128 31.8072C12.9516 31.8072 12.4951 31.7152 12.0698 31.5368C11.6446 31.3583 11.2592 31.0968 10.9362 30.7677C10.2828 30.1028 9.91667 29.2079 9.91667 28.2757C9.91667 27.3432 10.283 26.4481 10.9366 25.7832L10.9378 25.782L14.9435 21.7257L13.3315 20.1138L9.27516 24.1195L9.27396 24.1206C8.60903 24.7743 7.71393 25.1406 6.78151 25.1406C5.84909 25.1406 4.95398 24.7743 4.28906 24.1206C3.96012 23.7977 3.69882 23.4125 3.52042 22.9874C3.34193 22.5622 3.25 22.1056 3.25 21.6445C3.25 21.1833 3.34193 20.7267 3.52042 20.3015C3.69287 19.8906 3.94277 19.517 4.25634 19.2008L4.37244 19.0565L4.25634 18.9121C3.94277 18.5959 3.69286 18.2223 3.52042 17.8114C3.34193 17.3862 3.25 16.9296 3.25 16.4685C3.25 16.0073 3.34193 15.5507 3.52042 15.1255C3.69887 14.7003 3.96026 14.315 4.28932 13.992C4.95422 13.3385 5.84921 12.9723 6.78151 12.9723C7.71393 12.9723 8.60904 13.3386 9.27396 13.9923L9.27516 13.9935L13.3315 17.9991L14.9435 16.3872L10.9378 12.3308L10.9366 12.3296C10.283 11.6647 9.91667 10.7696 9.91667 9.83717C9.91667 8.90488 10.2829 8.00988 10.9364 7.34499C11.2594 7.01593 11.6447 6.75453 12.0698 6.57608C12.4951 6.39759 12.9516 6.30566 13.4128 6.30566C13.874 6.30566 14.3305 6.39759 14.7558 6.57608C15.1666 6.74853 15.5403 6.99843 15.8564 7.312L16.0008 7.4281L16.1452 7.31201C16.4613 6.99843 16.835 6.74853 17.2458 6.57608C17.6711 6.39759 18.1276 6.30566 18.5888 6.30566C19.05 6.30566 19.5065 6.39759 19.9318 6.57608C20.3568 6.75448 20.742 7.01578 21.065 7.34472C21.7186 8.00965 22.0849 8.90475 22.0849 9.83717C22.0849 10.7696 21.7186 11.6647 21.065 12.3296L21.0638 12.3308L17.0581 16.3872ZM12.2674 19.0565L8.22239 15.062C8.22221 15.0618 8.22258 15.0622 8.22239 15.062C7.83806 14.6844 7.32028 14.4723 6.78151 14.4723C6.24248 14.4723 5.72502 14.6841 5.34063 15.062C5.15376 15.2454 5.00485 15.4646 4.90352 15.706C4.80219 15.9475 4.75 16.2066 4.75 16.4685C4.75 16.7303 4.80219 16.9895 4.90352 17.2309C5.00485 17.4723 5.15329 17.6911 5.34016 17.8745C5.36114 17.8951 5.38089 17.9169 5.39932 17.9398L5.91932 18.5865C6.14002 18.8609 6.14002 19.252 5.91932 19.5265L5.39932 20.1731C5.3809 20.196 5.36114 20.2178 5.34016 20.2384C5.15329 20.4218 5.00485 20.6406 4.90352 20.882C4.80219 21.1235 4.75 21.3826 4.75 21.6445C4.75 21.9063 4.80219 22.1655 4.90352 22.4069C5.00485 22.6483 5.15329 22.8671 5.34016 23.0505C5.72455 23.4284 6.24248 23.6406 6.78151 23.6406C7.32028 23.6406 7.83751 23.4291 8.22184 23.0515C8.22166 23.0517 8.22202 23.0513 8.22184 23.0515L12.2674 19.0565ZM14.3955 19.0565L16.0008 20.6617L17.606 19.0565L16.0008 17.4512L14.3955 19.0565ZM19.7341 19.0565L23.7791 15.062C23.7794 15.0617 23.7797 15.0614 23.7799 15.0612C24.1642 14.6838 24.6814 14.4723 25.22 14.4723C25.759 14.4723 26.2765 14.6841 26.6609 15.062C26.8478 15.2454 26.9967 15.4646 27.098 15.706C27.1993 15.9474 27.2515 16.2066 27.2515 16.4685C27.2515 16.7303 27.1993 16.9895 27.098 17.2309C26.9967 17.4723 26.8482 17.6911 26.6613 17.8745C26.6404 17.8951 26.6206 17.9169 26.6022 17.9398L26.0822 18.5865C25.8615 18.8609 25.8615 19.252 26.0822 19.5265L26.6022 20.1731C26.6206 20.196 26.6404 20.2178 26.6613 20.2384C26.8482 20.4218 26.9967 20.6406 27.098 20.882C27.1993 21.1234 27.2515 21.3826 27.2515 21.6445C27.2515 21.9063 27.1993 22.1655 27.098 22.4069C26.9967 22.6483 26.8482 22.8671 26.6613 23.0505C26.277 23.4284 25.759 23.6406 25.22 23.6406C24.6813 23.6406 24.1642 23.4292 23.7799 23.0518C23.7797 23.0515 23.7794 23.0512 23.7791 23.051L19.7341 19.0565ZM16.0008 22.7897L12.0063 26.8348C12.006 26.8351 12.0058 26.8353 12.0055 26.8356C11.6281 27.2199 11.4167 27.737 11.4167 28.2757C11.4167 28.8147 11.6284 29.3322 12.0063 29.7165C12.1897 29.9034 12.4089 30.0523 12.6504 30.1537C12.8918 30.255 13.151 30.3072 13.4128 30.3072C13.6746 30.3072 13.9338 30.255 14.1752 30.1537C14.4167 30.0523 14.6355 29.9039 14.8188 29.717C14.8394 29.696 14.8612 29.6763 14.8841 29.6579L15.5308 29.1379C15.8053 28.9172 16.1963 28.9172 16.4708 29.1379L17.1175 29.6579C17.1404 29.6763 17.1622 29.696 17.1828 29.717C17.3662 29.9039 17.585 30.0523 17.8264 30.1537C18.0678 30.255 18.327 30.3072 18.5888 30.3072C18.8506 30.3072 19.1098 30.255 19.3512 30.1537C19.5927 30.0523 19.8115 29.9039 19.9948 29.717C20.3727 29.3326 20.5849 28.8147 20.5849 28.2757C20.5849 27.737 20.3735 27.2199 19.9961 26.8356C19.9958 26.8353 19.9956 26.8351 19.9953 26.8348L16.0008 22.7897Z" fill="#3CC279"/>
<path d="M175.676 26.2192C174.538 26.2192 173.51 26.0245 172.591 25.635C171.688 25.2456 170.971 24.6847 170.441 23.9526C169.912 23.2204 169.639 22.3558 169.624 21.3588H173.129C173.175 22.0287 173.409 22.5583 173.83 22.9478C174.266 23.3372 174.858 23.532 175.605 23.532C176.369 23.532 176.969 23.3528 177.405 22.9945C177.841 22.6207 178.059 22.1377 178.059 21.5458C178.059 21.0628 177.911 20.6656 177.615 20.354C177.319 20.0425 176.945 19.801 176.493 19.6297C176.057 19.4427 175.45 19.2402 174.671 19.0221C173.612 18.7106 172.747 18.4068 172.077 18.1108C171.423 17.7992 170.854 17.3397 170.371 16.7321C169.904 16.109 169.67 15.2834 169.67 14.2552C169.67 13.2894 169.912 12.4482 170.395 11.7316C170.878 11.015 171.555 10.4698 172.428 10.0959C173.3 9.70644 174.297 9.51172 175.419 9.51172C177.101 9.51172 178.464 9.92454 179.508 10.7502C180.567 11.5602 181.151 12.6974 181.26 14.1618H177.662C177.631 13.601 177.389 13.1414 176.937 12.7831C176.501 12.4092 175.917 12.2223 175.185 12.2223C174.546 12.2223 174.032 12.3859 173.643 12.713C173.269 13.0401 173.082 13.5153 173.082 14.1384C173.082 14.5746 173.222 14.9407 173.502 15.2367C173.798 15.5171 174.157 15.7507 174.577 15.9377C175.014 16.109 175.621 16.3115 176.4 16.5452C177.459 16.8568 178.324 17.1683 178.994 17.4799C179.664 17.7915 180.24 18.2588 180.723 18.8819C181.206 19.505 181.447 20.3229 181.447 21.3355C181.447 22.2078 181.221 23.0179 180.77 23.7656C180.318 24.5134 179.656 25.1131 178.783 25.5649C177.911 26.0011 176.875 26.2192 175.676 26.2192Z" fill="white"/>
<path d="M160.879 12.386V16.4753H166.37V19.069H160.879V23.3919H167.071V26.0558H157.607V9.72217H167.071V12.386H160.879Z" fill="white"/>
<path d="M149 26.2192C147.862 26.2192 146.834 26.0245 145.915 25.635C145.012 25.2456 144.295 24.6847 143.765 23.9526C143.236 23.2204 142.963 22.3558 142.948 21.3588H146.453C146.499 22.0287 146.733 22.5583 147.154 22.9478C147.59 23.3372 148.182 23.532 148.929 23.532C149.693 23.532 150.293 23.3528 150.729 22.9945C151.165 22.6207 151.383 22.1377 151.383 21.5458C151.383 21.0628 151.235 20.6656 150.939 20.354C150.643 20.0425 150.269 19.801 149.817 19.6297C149.381 19.4427 148.774 19.2402 147.995 19.0221C146.935 18.7106 146.071 18.4068 145.401 18.1108C144.747 17.7992 144.178 17.3397 143.695 16.7321C143.228 16.109 142.994 15.2834 142.994 14.2552C142.994 13.2894 143.236 12.4482 143.719 11.7316C144.202 11.015 144.879 10.4698 145.752 10.0959C146.624 9.70644 147.621 9.51172 148.743 9.51172C150.425 9.51172 151.788 9.92454 152.832 10.7502C153.891 11.5602 154.475 12.6974 154.584 14.1618H150.986C150.955 13.601 150.713 13.1414 150.261 12.7831C149.825 12.4092 149.241 12.2223 148.509 12.2223C147.87 12.2223 147.356 12.3859 146.967 12.713C146.593 13.0401 146.406 13.5153 146.406 14.1384C146.406 14.5746 146.546 14.9407 146.826 15.2367C147.122 15.5171 147.481 15.7507 147.901 15.9377C148.338 16.109 148.945 16.3115 149.724 16.5452C150.783 16.8568 151.648 17.1683 152.318 17.4799C152.988 17.7915 153.564 18.2588 154.047 18.8819C154.53 19.505 154.771 20.3229 154.771 21.3355C154.771 22.2078 154.545 23.0179 154.094 23.7656C153.642 24.5134 152.98 25.1131 152.107 25.5649C151.235 26.0011 150.199 26.2192 149 26.2192Z" fill="white"/>
<path d="M136.643 22.9479H130.147L129.072 26.0558H125.637L131.502 9.72217H135.311L141.176 26.0558H137.718L136.643 22.9479ZM135.755 20.3308L133.395 13.5076L131.035 20.3308H135.755Z" fill="white"/>
<path d="M107.911 17.8772C107.911 16.2727 108.269 14.8395 108.986 13.5777C109.718 12.3003 110.707 11.3111 111.953 10.61C113.215 9.89345 114.625 9.53516 116.183 9.53516C118.005 9.53516 119.602 10.0025 120.973 10.9372C122.344 11.8719 123.302 13.1648 123.847 14.8161H120.085C119.711 14.0372 119.182 13.453 118.496 13.0636C117.826 12.6741 117.047 12.4794 116.159 12.4794C115.209 12.4794 114.36 12.7053 113.612 13.1571C112.88 13.5932 112.304 14.2164 111.883 15.0264C111.478 15.8365 111.276 16.7867 111.276 17.8772C111.276 18.9521 111.478 19.9024 111.883 20.728C112.304 21.5381 112.88 22.169 113.612 22.6207C114.36 23.0569 115.209 23.275 116.159 23.275C117.047 23.275 117.826 23.0803 118.496 22.6908C119.182 22.2858 119.711 21.6938 120.085 20.9149H123.847C123.302 22.5818 122.344 23.8825 120.973 24.8172C119.618 25.7363 118.021 26.1959 116.183 26.1959C114.625 26.1959 113.215 25.8454 111.953 25.1444C110.707 24.4278 109.718 23.4386 108.986 22.1768C108.269 20.9149 107.911 19.4817 107.911 17.8772Z" fill="white"/>
<path d="M97.8846 26.2193C96.3735 26.2193 95.0026 25.8688 93.772 25.1677C92.5413 24.4511 91.5677 23.4619 90.8511 22.2001C90.1501 20.9227 89.7996 19.4817 89.7996 17.8772C89.7996 16.2727 90.1501 14.8395 90.8511 13.5777C91.5677 12.3003 92.5413 11.3111 93.772 10.61C95.0026 9.89345 96.3735 9.53516 97.8846 9.53516C99.4112 9.53516 100.79 9.89345 102.021 10.61C103.251 11.3111 104.217 12.3003 104.918 13.5777C105.619 14.8395 105.97 16.2727 105.97 17.8772C105.97 19.4817 105.619 20.9227 104.918 22.2001C104.217 23.4619 103.251 24.4511 102.021 25.1677C100.79 25.8688 99.4112 26.2193 97.8846 26.2193ZM97.8846 24.7939C99.0997 24.7939 100.19 24.5135 101.156 23.9526C102.122 23.3918 102.885 22.5896 103.446 21.5458C104.007 20.4865 104.287 19.2637 104.287 17.8772C104.287 16.4908 104.007 15.2757 103.446 14.2319C102.885 13.1882 102.122 12.3859 101.156 11.8251C100.19 11.2643 99.0997 10.9839 97.8846 10.9839C96.6695 10.9839 95.579 11.2643 94.6132 11.8251C93.6473 12.3859 92.884 13.1882 92.3232 14.2319C91.7624 15.2757 91.482 16.4908 91.482 17.8772C91.482 19.2637 91.7624 20.4865 92.3232 21.5458C92.884 22.5896 93.6473 23.3918 94.6132 23.9526C95.579 24.5135 96.6695 24.7939 97.8846 24.7939Z" fill="white"/>
<path d="M85.1209 14.489C84.6535 13.4141 83.937 12.5729 82.9711 11.9653C82.0209 11.3422 80.8992 11.0307 79.6063 11.0307C78.3912 11.0307 77.3007 11.3111 76.3349 11.8719C75.369 12.4327 74.6057 13.2349 74.0449 14.2787C73.4841 15.3068 73.2037 16.5063 73.2037 17.8772C73.2037 19.2481 73.4841 20.4554 74.0449 21.4991C74.6057 22.5428 75.369 23.3451 76.3349 23.9059C77.3007 24.4667 78.3912 24.7471 79.6063 24.7471C80.7435 24.7471 81.7638 24.5057 82.6673 24.0228C83.5864 23.5243 84.3186 22.8232 84.8638 21.9197C85.4247 21.0006 85.744 19.9335 85.8219 18.7184H78.952V17.3865H87.5511V18.5782C87.4732 20.0114 87.0837 21.3122 86.3827 22.4805C85.6817 23.6333 84.7392 24.5446 83.5553 25.2145C82.3869 25.8843 81.0706 26.2193 79.6063 26.2193C78.0952 26.2193 76.7243 25.8688 75.4936 25.1677C74.263 24.4511 73.2893 23.4619 72.5728 22.2001C71.8717 20.9227 71.5212 19.4817 71.5212 17.8772C71.5212 16.2727 71.8717 14.8395 72.5728 13.5777C73.2893 12.3003 74.263 11.3111 75.4936 10.61C76.7243 9.89345 78.0952 9.53516 79.6063 9.53516C81.351 9.53516 82.8776 9.97134 84.1862 10.8437C85.4948 11.7161 86.445 12.9312 87.037 14.489H85.1209Z" fill="white"/>
<path d="M63.8506 26.2193C62.7757 26.2193 61.8254 26.0323 60.9998 25.6584C60.1897 25.2846 59.551 24.7627 59.0837 24.0929C58.6163 23.423 58.3671 22.6752 58.3359 21.8496H60.0651C60.143 22.6441 60.4935 23.3451 61.1166 23.9526C61.7397 24.5446 62.6511 24.8406 63.8506 24.8406C64.9566 24.8406 65.829 24.5602 66.4677 23.9994C67.122 23.423 67.4491 22.6986 67.4491 21.8262C67.4491 21.1252 67.27 20.5644 66.9117 20.1438C66.5534 19.7076 66.1094 19.3883 65.5797 19.1858C65.0501 18.9677 64.3179 18.734 63.3832 18.4848C62.2928 18.1888 61.4282 17.9006 60.7895 17.6202C60.1508 17.3398 59.6055 16.9036 59.1538 16.3116C58.702 15.7196 58.4761 14.9174 58.4761 13.9048C58.4761 13.0636 58.6942 12.3158 59.1304 11.6616C59.5666 10.9917 60.1819 10.4698 60.9764 10.096C61.7709 9.72209 62.6822 9.53516 63.7104 9.53516C65.2214 9.53516 66.4365 9.90903 67.3556 10.6568C68.2903 11.3889 68.8278 12.3392 68.968 13.5076H67.1921C67.083 12.8377 66.7169 12.2457 66.0938 11.7317C65.4707 11.202 64.6295 10.9372 63.5702 10.9372C62.5887 10.9372 61.7709 11.202 61.1166 11.7317C60.4623 12.2457 60.1352 12.9545 60.1352 13.8581C60.1352 14.5435 60.3144 15.0965 60.6726 15.5171C61.0309 15.9377 61.4749 16.2571 62.0046 16.4752C62.5498 16.6933 63.282 16.9269 64.2011 17.1762C65.2604 17.4722 66.1172 17.7682 66.7715 18.0641C67.4257 18.3445 67.9788 18.7807 68.4305 19.3727C68.8823 19.9647 69.1082 20.7591 69.1082 21.7561C69.1082 22.5195 68.9057 23.2438 68.5006 23.9293C68.0956 24.6147 67.4958 25.1677 66.7014 25.5883C65.9069 26.009 64.9566 26.2193 63.8506 26.2193Z" fill="white"/>
<path d="M40.1216 17.8772C40.1216 16.2727 40.4721 14.8395 41.1731 13.5777C41.8741 12.3003 42.8322 11.3111 44.0473 10.61C45.2623 9.89345 46.6176 9.53516 48.1131 9.53516C49.9358 9.53516 51.4936 9.97134 52.7865 10.8437C54.0951 11.7005 55.0454 12.9156 55.6373 14.489H53.7212C53.2539 13.3829 52.5373 12.5184 51.5715 11.8952C50.6212 11.2721 49.4684 10.9605 48.1131 10.9605C46.9136 10.9605 45.8309 11.241 44.8651 11.8018C43.9148 12.3626 43.1671 13.1726 42.6219 14.2319C42.0766 15.2757 41.804 16.4908 41.804 17.8772C41.804 19.2637 42.0766 20.4787 42.6219 21.5225C43.1671 22.5662 43.9148 23.3685 44.8651 23.9293C45.8309 24.4901 46.9136 24.7705 48.1131 24.7705C49.4684 24.7705 50.6212 24.4667 51.5715 23.8592C52.5373 23.2361 53.2539 22.3793 53.7212 21.2888H55.6373C55.0454 22.8466 54.0951 24.0539 52.7865 24.9107C51.478 25.7675 49.9202 26.1959 48.1131 26.1959C46.6176 26.1959 45.2623 25.8454 44.0473 25.1444C42.8322 24.4278 41.8741 23.4386 41.1731 22.1768C40.4721 20.9149 40.1216 19.4817 40.1216 17.8772Z" fill="white"/>
</svg>
