<svg xmlns="http://www.w3.org/2000/svg" xmlns:xlink="http://www.w3.org/1999/xlink" viewBox="0 0 1280 200.2">
  <defs>
    <linearGradient id="Gradient_bez_nazwy_39" data-name="Gradient bez nazwy 39" x1="348.63" y1="100.1" x2="669.79" y2="100.1" gradientUnits="userSpaceOnUse">
      <stop offset="0" stop-color="#5c9ee0"/>
      <stop offset="1" stop-color="#b45ae0"/>
    </linearGradient>
  </defs>
  <title>G4Skins-test6</title>
  <g id="Warstwa_2" data-name="Warstwa 2">
    <g id="Warstwa_1-2" data-name="Warstwa 1">
      <g>
        <polygon points="1184.41 77.61 1170.42 84.04 1273.2 84.04 1260.73 154.7 1138.69 154.7 1143.22 129 1233.15 129 1234.29 122.58 1248.26 116.16 1145.49 116.16 1157.96 45.5 1280 45.5 1275.47 71.19 1185.54 71.19 1184.41 77.61" fill="#fff"/>
        <polygon points="1106.57 45.5 1094.71 112.7 1055.19 45.5 1016.65 45.5 997.38 154.7 1029.49 154.7 1041.36 87.5 1080.88 154.7 1119.42 154.7 1138.69 45.5 1106.57 45.5" fill="#fff"/>
        <polygon points="965.26 45.5 945.99 154.7 978.11 154.7 997.38 45.5 965.26 45.5" fill="#fff"/>
        <polygon points="715.52 77.61 701.52 84.04 804.3 84.04 791.84 154.7 669.79 154.7 674.33 129 764.25 129 765.39 122.58 779.36 116.16 676.6 116.16 689.06 45.5 811.1 45.5 806.57 71.19 716.65 71.19 715.52 77.61" fill="#fff"/>
        <polygon points="904.24 100.1 933.15 154.7 888.18 154.7 870.59 121.46 882.13 116.16 850.02 116.16 843.22 154.7 811.11 154.7 830.37 45.5 862.49 45.5 856.82 77.61 842.83 84.04 873.44 84.04 907.45 45.5 952.41 45.5 904.24 100.1" fill="#fff"/>
      </g>
      <path d="M669.79,45.5l-14.29,81-2.79,15.79-2.18,12.39H592.72l26.67-5.51,4.7-26.62,14-6.41H535.29l9.64-54.66,1.46-8.29L528.48,45.5h51.39l-5.66,32.11-14,6.43h70.66l4-22.54,2.82-16ZM524,71.2l4.53-25.69H380.73l24.42,7.35L389,144.18,348.63,154.7H509.21L521.68,84H444.6l-5.66,32.12h57.8l-14,6.42L481.63,129H423.82L434,71.2Z" fill="url(#Gradient_bez_nazwy_39)"/>
      <path d="M257.27,112a23.26,23.26,0,0,1,7.59-3.49,22.84,22.84,0,0,1,3.25-.58l5.67,25.24.59,2.64a76.84,76.84,0,0,0,42.15-68.61,78.59,78.59,0,0,0-.59-9.64L294.52,48.7a158.2,158.2,0,0,1,18.68-3.88h0l-.92-.3-6.19-2-27-8.53-15.44-4.87-14.84-18.4-3.51-4.35-.08-.1q-4.28-.88-8.6-1.65A296.21,296.21,0,0,0,201.41.52c-1.45-.08-2.9-.17-4.35-.23q-3.88-.16-7.8-.24h0c-1.86,0-3.71,0-5.57,0a300.11,300.11,0,0,0-68.94,8q-9.52,9.38-18.42,19.37C94.66,29.21,93,31.1,91.39,33L52.24,30.28,8,27.22,37.35,38.08l38.5,14.26,19.26,7.13-27.3,3.9a400.39,400.39,0,0,0-24.12,38.9,407.24,407.24,0,0,0-43,2.6L0,105l.73.19Q19,109.74,36.57,116a397.05,397.05,0,0,1,55.56,24.72q9.3,5,18.29,10.51a399.35,399.35,0,0,1,45,31.88l-68,13.41-16.92,3.34H197.2l21.68-29.27,4.39-5.92c-.24-.56-.48-1.11-.73-1.66a80.26,80.26,0,0,0-18-25.14,80.62,80.62,0,0,1,28.87,26.53c.64,1,1.26,2,1.86,3A79.56,79.56,0,0,1,246,199.88l0,.32.48-.32a160.81,160.81,0,0,0,29-25.56q3-3.39,5.88-7c2.73-3.42,5.32-7,7.75-10.61a158.11,158.11,0,0,0,14-25.75,79.67,79.67,0,0,1-19.27,19.1,23.55,23.55,0,0,1-5.71,2.92,23.25,23.25,0,0,1-26.66-8.63c-.26-.36-.5-.73-.73-1.1a22.84,22.84,0,0,1-2-4.07,22.53,22.53,0,0,1-1.46-7.09A23.23,23.23,0,0,1,257.27,112Zm-19.65-59Q232,54.7,226.23,55.94q-3.31.72-6.68,1.28c1-1.94,2.1-3.86,3.17-5.78-2.26-3-4.43-6.1-6.48-9.27l-.26-.4-.24-.13L194.49,30.57l18.13,5.72,16,5.05,22.5,7.1Q244.5,51,237.62,53.05Z" fill="#fff"/>
    </g>
  </g>
</svg>
