<?xml version="1.0" encoding="utf-8"?>
<!-- Generator: Adobe Illustrator 26.3.1, SVG Export Plug-In . SVG Version: 6.00 Build 0)  -->
<svg version="1.1" id="Warstwa_1" xmlns="http://www.w3.org/2000/svg" xmlns:xlink="http://www.w3.org/1999/xlink" x="0px" y="0px"
	 viewBox="0 0 245 70.4" style="enable-background:new 0 0 245 70.4;" xml:space="preserve">
<style type="text/css">
	.st0{fill:#FFFFFF;}
	.st1{fill:#FFDB63;}
	.st2{fill:#686868;}
</style>
<path class="st0" d="M23.4,61.6c2.3,0,4.4,1.4,5.2,3.6l0.1,0.3c0,0,0.4,1.2,1.6,1.1c4-0.5,7.7-2.3,10.7-5.2
	c3.5-3.5,5.4-8.1,5.4-13.1c0-4.9-1.9-9.5-5.4-13s-8.2-5.5-13.1-5.5H20V19.5h6.9v6c2.5-0.1,5.1,0.2,7.5,0.9v-7.6
	c0-3.8-3.1-6.9-6.9-6.9h-8.2c-3.8,0-6.9,3.1-6.9,6.9v9.1l-0.8-0.7c-2.4-2.1-3.7-5-3.7-8.3c0-3.1,1.1-5.9,3.2-7.8
	c2-2,4.8-3.2,7.8-3.2h9.4C31,8,33.5,9.1,35.5,11c2,2,3.2,4.9,3.2,7.8v9.3c2,1.1,3.8,2.5,5.5,4.1c0.4,0.4,0.9,0.4,1.3,0.3
	c0.5-0.2,0.7-0.6,0.7-1.1V18.9c0-4.9-1.9-9.6-5.5-13.1c-3.6-3.6-8.5-5.6-13.6-5.4h-8.2C14,0.4,9.3,2.3,5.8,5.8s-5.4,8.1-5.4,13.1
	c0,4.9,1.9,9.5,5.4,13c1.8,1.8,3.9,3.2,6.3,4.2l0.3,0.1V48c0,3.8,3.1,6.9,6.9,6.9h8.2c0.3,0,0.6,0,0.9-0.1c1.8-0.1,3.5-1,4.7-2.4
	c1.2-1.4,1.6-3.2,1.4-5.1c-0.3-2-1.5-3.7-3.4-4.8c-1.4-0.8-2.7-1-4.2-0.7v5.5H20v-9.9h7.9c3,0,5.8,1.1,7.8,3.2
	c2.1,2.1,3.2,4.8,3.2,7.8c0,3.1-1.1,5.9-3.2,7.8c-2,2-4.8,3.2-7.8,3.2h-9.4c-2.7-0.1-5.3-1.2-7.3-3.2S8,51.3,8,48.4V39
	c-2-0.9-3.8-2.2-5.7-4.1c-0.4-0.4-0.8-0.4-1.2-0.3c-0.4,0.2-0.6,0.5-0.6,0.9v12.9c0,4.9,1.9,9.6,5.5,13.1c2.8,2.8,6.5,4.7,10.5,5.2
	c1.1,0,1.5-1.1,1.5-1.1l0.1-0.3C19,63,21,61.6,23.4,61.6z"/>
<g>
	<path class="st0" d="M69.3,43.2c-1.5-0.6-2.5-1.4-3.3-2.4c-0.7-1-1.1-2-1.2-3.2c0-0.2,0.1-0.3,0.2-0.5c0.1-0.1,0.3-0.2,0.5-0.2h4
		c0.3,0,0.5,0,0.6,0.1c0.2,0.1,0.3,0.2,0.5,0.4c0.3,0.6,0.7,1,1.3,1.4c0.6,0.4,1.4,0.5,2.5,0.5c1.2,0,2.1-0.2,2.8-0.6
		c0.6-0.4,1-0.9,1-1.6c0-0.5-0.2-0.9-0.5-1.2s-0.8-0.6-1.6-0.8c-0.7-0.2-1.8-0.5-3.1-0.8c-2.6-0.5-4.5-1.3-5.7-2.4
		c-1.3-1-1.9-2.5-1.9-4.4c0-1.3,0.4-2.5,1.1-3.5s1.8-1.8,3.1-2.4c1.3-0.6,2.9-0.9,4.7-0.9c1.9,0,3.5,0.3,4.8,1
		c1.4,0.6,2.4,1.4,3.1,2.4s1.1,1.9,1.1,2.9c0,0.2-0.1,0.4-0.2,0.5s-0.3,0.2-0.5,0.2h-4.2c-0.3,0-0.5,0-0.6-0.1
		c-0.2-0.1-0.3-0.2-0.4-0.4c-0.1-0.5-0.5-0.9-1-1.2c-0.6-0.3-1.3-0.5-2.1-0.5c-1,0-1.7,0.2-2.2,0.5s-0.8,0.8-0.8,1.5
		c0,0.4,0.1,0.8,0.4,1.1c0.3,0.3,0.8,0.6,1.4,0.8c0.7,0.2,1.6,0.5,2.8,0.8c2,0.4,3.6,0.8,4.8,1.4c1.2,0.5,2.1,1.2,2.6,2.1
		c0.6,0.9,0.8,1.9,0.8,3.2c0,1.4-0.4,2.7-1.2,3.7c-0.8,1.1-2,1.9-3.4,2.4c-1.5,0.6-3.1,0.8-5,0.8C72.5,44.1,70.8,43.8,69.3,43.2z"/>
	<path class="st0" d="M87.3,43.6C87.1,43.4,87,43.2,87,43V21.9c0-0.2,0.1-0.4,0.2-0.6c0.2-0.1,0.3-0.2,0.6-0.2h3.7
		c0.2,0,0.4,0.1,0.6,0.2c0.1,0.1,0.2,0.3,0.2,0.6v10.7l4.4-4.9c0,0,0.1-0.1,0.2-0.2s0.2-0.2,0.4-0.2c0.1-0.1,0.3-0.1,0.4-0.1h4.3
		c0.2,0,0.4,0.1,0.5,0.2s0.2,0.3,0.2,0.5s-0.1,0.4-0.3,0.5l-5.8,6.2l6.6,8c0.2,0.2,0.3,0.3,0.3,0.5s-0.1,0.4-0.2,0.5
		s-0.3,0.2-0.5,0.2h-4.4c-0.3,0-0.5,0-0.6-0.1s-0.3-0.2-0.5-0.4l-5.1-6.1V43c0,0.2-0.1,0.4-0.2,0.6c-0.1,0.2-0.3,0.2-0.6,0.2h-3.7
		C87.6,43.8,87.4,43.7,87.3,43.6z"/>
	<path class="st0" d="M106,24.5c-0.1-0.1-0.2-0.3-0.2-0.6V21c0-0.2,0.1-0.4,0.2-0.6c0.1-0.1,0.3-0.2,0.6-0.2h3.8
		c0.2,0,0.4,0.1,0.6,0.2c0.1,0.1,0.2,0.3,0.2,0.6v3c0,0.2-0.1,0.4-0.2,0.6c-0.1,0.1-0.3,0.2-0.6,0.2h-3.8
		C106.3,24.8,106.1,24.7,106,24.5z M106,43.6c-0.1-0.1-0.2-0.3-0.2-0.6V28c0-0.2,0.1-0.4,0.2-0.6c0.1-0.1,0.3-0.2,0.6-0.2h3.8
		c0.2,0,0.4,0.1,0.6,0.2c0.1,0.1,0.2,0.3,0.2,0.6v15c0,0.2-0.1,0.4-0.2,0.6c-0.1,0.2-0.3,0.2-0.6,0.2h-3.8
		C106.3,43.8,106.1,43.7,106,43.6z"/>
	<path class="st0" d="M115.1,43.6c-0.1-0.1-0.2-0.3-0.2-0.6V28c0-0.2,0.1-0.4,0.2-0.6c0.1-0.1,0.3-0.2,0.6-0.2h3.7
		c0.2,0,0.4,0.1,0.6,0.2s0.2,0.3,0.2,0.6v1.2c0.6-0.7,1.3-1.3,2.2-1.7c0.9-0.4,1.9-0.6,3.1-0.6c1.9,0,3.4,0.6,4.6,1.9
		c1.2,1.3,1.8,3,1.8,5.3V43c0,0.2-0.1,0.4-0.2,0.6c-0.2,0.2-0.3,0.2-0.6,0.2h-4c-0.2,0-0.4-0.1-0.6-0.2c-0.2-0.2-0.2-0.3-0.2-0.6
		v-8.7c0-1-0.2-1.8-0.7-2.3s-1.2-0.8-2.1-0.8s-1.6,0.3-2.1,0.8s-0.8,1.3-0.8,2.3V43c0,0.2-0.1,0.4-0.2,0.6c-0.1,0.2-0.3,0.2-0.6,0.2
		h-4C115.5,43.8,115.3,43.7,115.1,43.6z"/>
	<path class="st0" d="M137.9,41.9c-1.7-1.5-2.6-3.6-2.7-6.5c0-0.6,0-1.5,0-2.8s0-2.3,0-2.9c0.1-2.8,1-4.9,2.8-6.4
		c1.7-1.5,4.1-2.3,7.1-2.3c1.9,0,3.6,0.3,5.1,0.9s2.7,1.5,3.5,2.7c0.9,1.2,1.3,2.5,1.3,4.1v0.1c0,0.2-0.1,0.3-0.2,0.4
		c-0.1,0.1-0.3,0.2-0.5,0.2H150c-0.3,0-0.5-0.1-0.6-0.2s-0.3-0.3-0.4-0.7c-0.3-1.1-0.8-1.9-1.4-2.3c-0.6-0.4-1.5-0.7-2.5-0.7
		c-2.5,0-3.8,1.4-3.9,4.2c0,0.6,0,1.5,0,2.7s0,2.1,0,2.7c0.1,2.8,1.4,4.2,3.9,4.2c1,0,1.9-0.2,2.6-0.7c0.7-0.5,1.1-1.2,1.4-2.3
		c0.1-0.3,0.2-0.5,0.4-0.7c0.1-0.1,0.4-0.2,0.7-0.2h4.3c0.2,0,0.4,0.1,0.5,0.2c0.1,0.1,0.2,0.3,0.2,0.5c0,1.6-0.5,2.9-1.3,4.1
		c-0.9,1.2-2,2.1-3.5,2.7c-1.5,0.6-3.2,0.9-5.1,0.9C142,44.1,139.6,43.4,137.9,41.9z"/>
	<path class="st0" d="M159.9,43.5c-0.9-0.4-1.7-1-2.2-1.8s-0.8-1.6-0.8-2.5c0-1.5,0.6-2.7,1.8-3.6c1.2-0.9,2.9-1.5,5-1.9l4-0.6v-0.4
		c0-0.8-0.2-1.4-0.5-1.8s-0.9-0.6-1.7-0.6c-0.5,0-0.9,0.1-1.2,0.3c-0.3,0.2-0.7,0.4-1,0.7c-0.3,0.3-0.5,0.4-0.7,0.5
		c-0.1,0.2-0.2,0.3-0.4,0.3h-3.5c-0.2,0-0.4-0.1-0.5-0.2c-0.1-0.1-0.2-0.3-0.2-0.5c0-0.6,0.3-1.2,0.8-1.9c0.5-0.7,1.4-1.3,2.5-1.8
		s2.5-0.8,4.1-0.8c2.6,0,4.6,0.6,5.8,1.7c1.3,1.2,1.9,2.7,1.9,4.7V43c0,0.2-0.1,0.4-0.2,0.6c-0.1,0.2-0.3,0.2-0.6,0.2h-3.7
		c-0.2,0-0.4-0.1-0.6-0.2c-0.2-0.2-0.2-0.3-0.2-0.6v-1.1c-0.5,0.7-1.1,1.2-2,1.6c-0.8,0.4-1.8,0.6-3,0.6
		C161.8,44.1,160.8,43.9,159.9,43.5z M166.9,39.5c0.6-0.6,0.9-1.6,0.9-2.8v-0.4l-2.7,0.5c-1.9,0.3-2.9,1-2.9,2c0,0.5,0.2,1,0.7,1.3
		c0.4,0.3,1,0.5,1.6,0.5C165.5,40.5,166.3,40.2,166.9,39.5z"/>
	<path class="st0" d="M177.1,43.6c-0.1-0.1-0.2-0.3-0.2-0.6V28c0-0.2,0.1-0.4,0.2-0.6c0.1-0.1,0.3-0.2,0.6-0.2h3.7
		c0.2,0,0.4,0.1,0.6,0.2c0.2,0.1,0.2,0.3,0.2,0.6v1.2c0.6-0.7,1.3-1.3,2.2-1.7c0.9-0.4,1.9-0.6,3.1-0.6c1.9,0,3.4,0.6,4.6,1.9
		c1.2,1.3,1.8,3,1.8,5.3V43c0,0.2-0.1,0.4-0.2,0.6c-0.2,0.2-0.3,0.2-0.6,0.2h-4c-0.2,0-0.4-0.1-0.6-0.2c-0.2-0.2-0.2-0.3-0.2-0.6
		v-8.7c0-1-0.2-1.8-0.7-2.3s-1.2-0.8-2.1-0.8c-0.9,0-1.6,0.3-2.1,0.8s-0.8,1.3-0.8,2.3V43c0,0.2-0.1,0.4-0.2,0.6
		c-0.1,0.2-0.3,0.2-0.6,0.2h-4C177.4,43.8,177.2,43.7,177.1,43.6z"/>
	<path class="st0" d="M199.1,37.5v-6.1h-2.5c-0.2,0-0.4-0.1-0.6-0.2c-0.2-0.1-0.2-0.3-0.2-0.6V28c0-0.2,0.1-0.4,0.2-0.6
		c0.2-0.1,0.4-0.2,0.6-0.2h2.5v-5.3c0-0.2,0.1-0.4,0.2-0.6c0.2-0.1,0.3-0.2,0.6-0.2h3.7c0.2,0,0.4,0.1,0.6,0.2
		c0.1,0.1,0.2,0.3,0.2,0.6v5.3h4c0.2,0,0.4,0.1,0.6,0.2c0.2,0.1,0.2,0.3,0.2,0.6v2.6c0,0.2-0.1,0.4-0.2,0.6
		c-0.2,0.1-0.4,0.2-0.6,0.2h-4v5.7c0,1.6,0.6,2.4,1.8,2.4h2.5c0.2,0,0.4,0.1,0.6,0.2c0.1,0.1,0.2,0.3,0.2,0.6V43
		c0,0.2-0.1,0.4-0.2,0.6c-0.1,0.2-0.3,0.2-0.6,0.2h-3C201.4,43.8,199.1,41.7,199.1,37.5z"/>
	<path class="st0" d="M214,42.3c-1.4-1.3-2.2-3-2.3-5.3c0-0.3,0-0.8,0-1.4c0-0.7,0-1.2,0-1.4c0.1-2.3,0.9-4,2.4-5.3s3.5-1.9,6-1.9
		c2.6,0,4.6,0.6,6.1,1.9s2.3,3,2.4,5.3c0,0.3,0,0.8,0,1.4c0,0.7,0,1.2,0,1.4c-0.1,2.3-0.9,4.1-2.3,5.3c-1.4,1.3-3.5,1.9-6.1,1.9
		C217.4,44.1,215.4,43.5,214,42.3z M222.2,39.4c0.4-0.6,0.7-1.4,0.8-2.6c0-0.2,0-0.6,0-1.3c0-0.6,0-1.1,0-1.3
		c-0.1-1.2-0.3-2-0.8-2.6s-1.1-0.9-2.1-0.9c-1.8,0-2.7,1.2-2.8,3.5v1.3v1.3c0,1.2,0.3,2,0.8,2.6s1.1,0.8,2.1,0.8
		C221,40.2,221.7,40,222.2,39.4z"/>
	<path class="st0" d="M232,43.6c-0.1-0.1-0.2-0.3-0.2-0.6V28c0-0.2,0.1-0.4,0.2-0.6c0.1-0.1,0.3-0.2,0.6-0.2h3.7
		c0.2,0,0.4,0.1,0.6,0.2s0.2,0.3,0.2,0.6v1.3c1.2-1.4,2.8-2.1,4.7-2.1h1.4c0.2,0,0.4,0.1,0.6,0.2c0.1,0.1,0.2,0.3,0.2,0.6v3.3
		c0,0.2-0.1,0.4-0.2,0.6c-0.1,0.2-0.3,0.2-0.6,0.2h-3.1c-0.9,0-1.6,0.2-2,0.7c-0.5,0.5-0.7,1.2-0.7,2V43c0,0.2-0.1,0.4-0.2,0.6
		s-0.4,0.2-0.6,0.2h-4C232.3,43.8,232.1,43.7,232,43.6z"/>
</g>
<g id="logo" transform="translate(-208.047 -438.007)">
	<g>
		<circle id="shape_color_00000042716199926998143130000009219963160446673850_" class="st1" cx="231.4" cy="505" r="2.6"/>
	</g>
</g>
<g>
	<path class="st2" d="M66.3,49.9h5.3v1h-2v6.6h-1.3v-6.6h-2V49.9z"/>
	<path class="st2" d="M72.9,49.4h1.3v2.8c0.4-0.5,1.1-0.8,1.9-0.8c1.4,0,2.4,0.9,2.4,2.6v3.6h-1.2v-3.4c0-1.1-0.6-1.7-1.5-1.7
		c-0.9,0-1.5,0.6-1.5,1.7v3.4h-1.3V49.4z"/>
	<path class="st2" d="M82.6,57.6c-1.7,0-3-1.2-3-3.1s1.2-3.1,3-3.1c1.7,0,2.9,1.2,2.9,3c0,0.2,0,0.4,0,0.6h-4.6
		c0.1,1,0.8,1.6,1.7,1.6c0.8,0,1.2-0.4,1.4-0.8h1.4C85.1,56.8,84.1,57.6,82.6,57.6z M80.9,54h3.4c0-0.9-0.8-1.5-1.7-1.5
		C81.7,52.4,81,53,80.9,54z"/>
	<path class="st2" d="M93,51.4c1.6,0,2.8,1.2,2.8,3.1s-1.3,3.2-2.8,3.2c-1,0-1.7-0.5-2.1-1v0.9h-1.3v-8.1h1.3v3
		C91.3,51.8,92.1,51.4,93,51.4z M92.7,52.5c-0.9,0-1.8,0.7-1.8,2c0,1.3,0.9,2,1.8,2c0.9,0,1.8-0.8,1.8-2.1
		C94.6,53.2,93.7,52.5,92.7,52.5z"/>
	<path class="st2" d="M96.9,49.9c0-0.5,0.4-0.8,0.8-0.8c0.4,0,0.8,0.4,0.8,0.8s-0.4,0.8-0.8,0.8C97.3,50.7,96.9,50.3,96.9,49.9z
		 M97.1,51.5h1.3v6.1h-1.3V51.5z"/>
	<path class="st2" d="M102.5,51.4c1,0,1.7,0.5,2.1,1v-0.9h1.3v6.2c0,1.7-1.1,2.9-3,2.9c-1.6,0-2.8-0.8-3-2.1h1.2
		c0.2,0.6,0.9,1.1,1.7,1.1c1,0,1.7-0.6,1.7-1.8v-1c-0.4,0.5-1.1,1-2.1,1c-1.6,0-2.9-1.3-2.9-3.2S100.9,51.4,102.5,51.4z M102.7,52.5
		c-0.9,0-1.8,0.7-1.8,2c0,1.3,0.9,2.1,1.8,2.1c0.9,0,1.8-0.7,1.8-2C104.6,53.2,103.7,52.5,102.7,52.5z"/>
	<path class="st2" d="M109.9,51.4c1,0,1.7,0.5,2.1,1v-0.9h1.3v6.2c0,1.7-1.1,2.9-3,2.9c-1.6,0-2.8-0.8-3-2.1h1.2
		c0.2,0.6,0.9,1.1,1.7,1.1c1,0,1.7-0.6,1.7-1.8v-1c-0.4,0.5-1.1,1-2.1,1c-1.6,0-2.9-1.3-2.9-3.2S108.3,51.4,109.9,51.4z M110.2,52.5
		c-0.9,0-1.8,0.7-1.8,2c0,1.3,0.9,2.1,1.8,2.1c0.9,0,1.8-0.7,1.8-2C112,53.2,111.1,52.5,110.2,52.5z"/>
	<path class="st2" d="M117.5,57.6c-1.7,0-3-1.2-3-3.1s1.2-3.1,3-3.1c1.7,0,2.9,1.2,2.9,3c0,0.2,0,0.4,0,0.6h-4.6
		c0.1,1,0.8,1.6,1.7,1.6c0.8,0,1.2-0.4,1.4-0.8h1.4C120,56.8,119,57.6,117.5,57.6z M115.8,54h3.4c0-0.9-0.8-1.5-1.7-1.5
		C116.6,52.4,116,53,115.8,54z"/>
	<path class="st2" d="M123.9,57.6c-1.5,0-2.5-0.9-2.5-2h1.3c0,0.5,0.5,0.9,1.2,0.9c0.7,0,1.1-0.3,1.1-0.7c0-1.2-3.5-0.5-3.5-2.7
		c0-1,0.9-1.7,2.3-1.7c1.4,0,2.3,0.7,2.3,1.9h-1.3c0-0.5-0.5-0.9-1.1-0.9c-0.7,0-1,0.3-1,0.7c0,1.2,3.4,0.5,3.5,2.7
		C126.2,56.9,125.3,57.6,123.9,57.6z"/>
	<path class="st2" d="M127.8,52.5h-0.7v-1h0.7V50h1.3v1.5h1.5v1h-1.5v3.4c0,0.5,0.2,0.6,0.7,0.6h0.8v1h-1c-1.1,0-1.7-0.5-1.7-1.7
		V52.5z"/>
	<path class="st2" d="M138,49.8c1.6,0,3,0.8,3.6,2.3h-1.5c-0.4-0.8-1.1-1.2-2-1.2c-1.5,0-2.6,1.1-2.6,2.8c0,1.7,1.1,2.8,2.6,2.8
		c0.9,0,1.6-0.4,2-1.2h1.5c-0.6,1.5-2,2.3-3.6,2.3c-2.2,0-3.9-1.6-3.9-3.9C134.1,51.4,135.9,49.8,138,49.8z"/>
	<path class="st2" d="M145.6,57.6c-1.5,0-2.7-0.8-2.7-2.2h1.3c0.1,0.6,0.5,1.1,1.4,1.1c0.9,0,1.4-0.5,1.4-1.1c0-1.8-4.1-0.6-4.1-3.5
		c0-1.3,1.1-2.2,2.6-2.2c1.5,0,2.5,0.8,2.6,2.1h-1.4c0-0.5-0.5-1-1.3-1c-0.7,0-1.3,0.3-1.3,1.1c0,1.7,4,0.6,4,3.4
		C148.2,56.5,147.3,57.6,145.6,57.6z"/>
	<path class="st2" d="M150.2,53c-0.5,0-0.8-0.4-0.8-0.8s0.4-0.8,0.8-0.8c0.4,0,0.8,0.4,0.8,0.8S150.6,53,150.2,53z M150.2,57.6
		c-0.5,0-0.8-0.4-0.8-0.8c0-0.5,0.4-0.8,0.8-0.8c0.4,0,0.8,0.4,0.8,0.8C151,57.3,150.6,57.6,150.2,57.6z"/>
	<path class="st2" d="M159.4,52.1h-1.5c-0.4-0.8-1.1-1.2-2-1.2c-1.5,0-2.6,1.1-2.6,2.8c0,1.7,1.1,2.8,2.6,2.8c1.4,0,2.3-0.8,2.4-2.1
		h-2.9v-1h4.2v1c-0.2,1.8-1.7,3.3-3.8,3.3c-2.2,0-3.9-1.6-3.9-3.9c0-2.3,1.7-3.9,3.9-3.9C157.5,49.8,158.8,50.6,159.4,52.1z"/>
	<path class="st2" d="M164.4,57.6c-2.2,0-3.9-1.6-3.9-3.9c0-2.3,1.7-3.9,3.9-3.9c2.2,0,3.9,1.6,3.9,3.9
		C168.3,56,166.6,57.6,164.4,57.6z M164.4,56.5c1.5,0,2.6-1.1,2.6-2.8c0-1.7-1.1-2.8-2.6-2.8s-2.6,1.1-2.6,2.8
		C161.8,55.4,162.9,56.5,164.4,56.5z"/>
	<path class="st2" d="M175.9,49.8c1.6,0,3,0.8,3.6,2.3h-1.5c-0.4-0.8-1.1-1.2-2-1.2c-1.5,0-2.6,1.1-2.6,2.8c0,1.7,1.1,2.8,2.6,2.8
		c0.9,0,1.6-0.4,2-1.2h1.5c-0.6,1.5-2,2.3-3.6,2.3c-2.2,0-3.9-1.6-3.9-3.9C172,51.4,173.7,49.8,175.9,49.8z"/>
	<path class="st2" d="M183.5,57.6c-1.7,0-3-1.2-3-3.1s1.4-3.1,3.1-3.1c1.7,0,3.1,1.2,3.1,3.1S185.2,57.6,183.5,57.6z M183.5,56.5
		c0.9,0,1.9-0.7,1.9-2c0-1.4-0.9-2-1.8-2c-0.9,0-1.8,0.7-1.8,2C181.7,55.9,182.6,56.5,183.5,56.5z"/>
	<path class="st2" d="M192.2,54.1c0-1.1-0.6-1.7-1.5-1.7c-0.9,0-1.5,0.6-1.5,1.7v3.4h-1.3v-6.1h1.3v0.7c0.4-0.5,1.1-0.8,1.8-0.8
		c1.4,0,2.5,0.9,2.5,2.6v3.6h-1.2V54.1z"/>
	<path class="st2" d="M195.7,51.5l1.7,4.9l1.7-4.9h1.3l-2.3,6.1h-1.5l-2.3-6.1H195.7z"/>
	<path class="st2" d="M204,57.6c-1.7,0-3-1.2-3-3.1s1.2-3.1,3-3.1c1.7,0,2.9,1.2,2.9,3c0,0.2,0,0.4,0,0.6h-4.6
		c0.1,1,0.8,1.6,1.7,1.6c0.8,0,1.2-0.4,1.4-0.8h1.4C206.4,56.8,205.5,57.6,204,57.6z M202.3,54h3.4c0-0.9-0.8-1.5-1.7-1.5
		C203.1,52.4,202.4,53,202.3,54z"/>
	<path class="st2" d="M209.4,57.5h-1.3v-6.1h1.3v0.9c0.4-0.6,1-1,1.8-1v1.3h-0.3c-0.9,0-1.5,0.4-1.5,1.7V57.5z"/>
	<path class="st2" d="M212.6,52.5h-0.7v-1h0.7V50h1.3v1.5h1.5v1h-1.5v3.4c0,0.5,0.2,0.6,0.7,0.6h0.8v1h-1c-1.1,0-1.7-0.5-1.7-1.7
		V52.5z"/>
	<path class="st2" d="M219.1,57.6c-1.7,0-3-1.2-3-3.1s1.2-3.1,3-3.1c1.7,0,2.9,1.2,2.9,3c0,0.2,0,0.4,0,0.6h-4.6
		c0.1,1,0.8,1.6,1.7,1.6c0.8,0,1.2-0.4,1.4-0.8h1.4C221.5,56.8,220.6,57.6,219.1,57.6z M217.4,54h3.4c0-0.9-0.8-1.5-1.7-1.5
		C218.2,52.4,217.5,53,217.4,54z"/>
	<path class="st2" d="M224.5,57.5h-1.3v-6.1h1.3v0.9c0.4-0.6,1-1,1.8-1v1.3H226c-0.9,0-1.5,0.4-1.5,1.7V57.5z"/>
</g>
</svg>
