<?xml version="1.0" encoding="UTF-8"?>
<svg width="553.08" height="110.92" inkscape:version="0.92.2 (5c3e80d, 2017-08-06)" sodipodi:docname="logo_horizontal.svg" version="1.1" viewBox="0 0 553.08 110.92" xml:space="preserve" xmlns="http://www.w3.org/2000/svg" xmlns:cc="http://creativecommons.org/ns#" xmlns:dc="http://purl.org/dc/elements/1.1/" xmlns:inkscape="http://www.inkscape.org/namespaces/inkscape" xmlns:rdf="http://www.w3.org/1999/02/22-rdf-syntax-ns#" xmlns:sodipodi="http://sodipodi.sourceforge.net/DTD/sodipodi-0.dtd">
    <sodipodi:namedview bordercolor="#666666" borderopacity="1" fit-margin-bottom="0" fit-margin-left="0" fit-margin-right="0" fit-margin-top="0" gridtolerance="10" guidetolerance="10" inkscape:current-layer="g10" inkscape:cx="210.81189" inkscape:cy="197.28259" inkscape:pagecheckerboard="true" inkscape:pageopacity="0" inkscape:pageshadow="2" inkscape:window-height="1027" inkscape:window-maximized="1" inkscape:window-width="1920" inkscape:window-x="-8" inkscape:window-y="-8" inkscape:zoom="1.1490485" objecttolerance="10" pagecolor="#ffffff" showgrid="false" />
    <metadata>
        <rdf:RDF>
            <cc:Work rdf:about="">
                <dc:format>image/svg+xml</dc:format>
                <dc:type rdf:resource="http://purl.org/dc/dcmitype/StillImage" />
                <dc:title />
            </cc:Work>
        </rdf:RDF>
    </metadata>
    <defs>
        <clipPath id="clipPath20">
            <path d="m0 792h870v-792h-870z" inkscape:connector-curvature="0" />
        </clipPath>
        <clipPath id="clipPath102">
            <path d="m0 792h870v-792h-870z" inkscape:connector-curvature="0" />
        </clipPath>
    </defs>
    <g transform="matrix(1.3333 0 0 -1.3333 -303.46 387.82)">
        <g clip-path="url(#clipPath20)">
            <g transform="translate(247.95 249.27)">
                <path d="m0 0c0 16.768 13.593 30.361 30.362 30.361 8.427 0 16.051-3.435 21.552-8.98l20.028-20.748c-0.339 22.679-18.819 40.962-41.58 40.962-15.577 0-29.151-8.566-36.276-21.241h-14.44z" fill="#fff" inkscape:connector-curvature="0" />
            </g>
            <g transform="translate(278.31 207.67)">
                <path d="m0 0c15.578 0 29.15 8.565 36.276 21.243h14.44l-20.355 20.355c0-16.769-13.592-30.365-30.361-30.365-8.427 0-16.051 3.438-21.552 8.981l-20.029 20.749c0.34-22.679 18.82-40.963 41.581-40.963" fill="#00c0f3" inkscape:connector-curvature="0" />
            </g>
            <g transform="translate(357.44 262.53)">
                <path d="m0 0h-13.684l-3.309 6.602h30.411l3.31-6.602h-9.548v-33.935h-7.18z" fill="#fff" inkscape:connector-curvature="0" />
            </g>
            <path d="m532.33 269.13h11.292v-40.536h-11.292z" fill="#00c0f3" inkscape:connector-curvature="0" />
            <g transform="translate(564.25 259.28)">
                <path d="m0 0h-12.161v9.844h35.557v-9.844h-12.162v-30.692h-11.234z" fill="#00c0f3" inkscape:connector-curvature="0" />
            </g>
            <g transform="translate(607.88 247.69)">
                <path d="m0 0c-1.672 0-3.157 0.281-4.453 0.842-1.297 0.56-2.369 1.334-3.216 2.323-0.847 0.988-1.453 2.149-1.819 3.485s-0.453 2.788-0.26 4.358l8e-3 0.06c0.182 1.489 0.628 2.907 1.337 4.25 0.71 1.346 1.618 2.523 2.727 3.532 1.109 1.007 2.375 1.808 3.805 2.4 1.429 0.591 2.947 0.887 4.558 0.887 0.937 0 1.779-0.067 2.528-0.2 0.748-0.132 1.432-0.32 2.056-0.565 0.623-0.244 1.202-0.546 1.739-0.901 0.536-0.358 1.052-0.77 1.545-1.239l-2.735-2.844c-0.365 0.346-0.743 0.663-1.137 0.948-0.392 0.285-0.812 0.525-1.257 0.719-0.446 0.193-0.942 0.346-1.487 0.459-0.548 0.111-1.157 0.168-1.83 0.168-0.978 0-1.916-0.205-2.811-0.614-0.898-0.408-1.698-0.955-2.402-1.638-0.707-0.684-1.295-1.487-1.764-2.404-0.47-0.919-0.766-1.89-0.893-2.913l-7e-3 -0.06c-0.135-1.102-0.088-2.123 0.142-3.063 0.23-0.939 0.625-1.748 1.182-2.422 0.558-0.672 1.256-1.205 2.092-1.591 0.837-0.389 1.805-0.582 2.903-0.582 1.016 0 1.985 0.149 2.907 0.445 0.919 0.299 1.736 0.69 2.447 1.183l0.495 4.028h-5.472l0.4 3.271h9.112l-1.104-8.988c-0.585-0.449-1.224-0.877-1.916-1.285-0.691-0.407-1.429-0.764-2.21-1.07-0.781-0.305-1.611-0.545-2.489-0.717-0.876-0.174-1.785-0.262-2.721-0.262" fill="#fff" inkscape:connector-curvature="0" />
            </g>
            <g transform="translate(631.85 247.69)">
                <path d="m0 0c-1.673 0-3.156 0.281-4.453 0.842-1.297 0.56-2.369 1.334-3.216 2.323-0.847 0.988-1.455 2.149-1.819 3.485-0.367 1.336-0.452 2.788-0.26 4.358l8e-3 0.06c0.182 1.489 0.629 2.907 1.338 4.25 0.71 1.346 1.618 2.523 2.726 3.532 1.109 1.007 2.377 1.808 3.805 2.4 1.429 0.591 2.947 0.887 4.558 0.887 0.937 0 1.781-0.067 2.528-0.2 0.748-0.132 1.432-0.32 2.056-0.565 0.623-0.244 1.202-0.546 1.739-0.901 0.538-0.358 1.052-0.77 1.545-1.239l-2.734-2.844c-0.365 0.346-0.746 0.663-1.138 0.948s-0.813 0.525-1.256 0.719c-0.446 0.193-0.943 0.346-1.489 0.459-0.546 0.111-1.156 0.168-1.829 0.168-0.978 0-1.916-0.205-2.811-0.614-0.897-0.408-1.696-0.955-2.402-1.638-0.708-0.684-1.294-1.487-1.764-2.404-0.47-0.919-0.766-1.89-0.892-2.913l-7e-3 -0.06c-0.136-1.102-0.089-2.123 0.141-3.063 0.231-0.939 0.625-1.748 1.182-2.422 0.558-0.672 1.256-1.205 2.092-1.591 0.837-0.389 1.805-0.582 2.903-0.582 1.016 0 1.985 0.149 2.907 0.445 0.921 0.299 1.736 0.69 2.447 1.183l0.495 4.028h-5.472l0.4 3.271h9.112l-1.102-8.988c-0.587-0.449-1.226-0.877-1.918-1.285-0.691-0.407-1.429-0.764-2.21-1.07-0.781-0.305-1.61-0.545-2.488-0.717-0.878-0.174-1.786-0.262-2.722-0.262" fill="#fff" inkscape:connector-curvature="0" />
            </g>
            <g transform="translate(595.61 234.4)">
                <path d="m0 0c0 3.088-2.505 5.592-5.594 5.592s-5.594-2.504-5.594-5.592c0-3.089 2.505-5.594 5.594-5.594s5.594 2.505 5.594 5.594" fill="#fff" inkscape:connector-curvature="0" />
            </g>
            <g transform="translate(401.28 243.94)">
                <path d="m0 0c1.428 0.386 2.731 0.935 3.909 1.649 1.177 0.714 2.192 1.583 3.04 2.607 0.849 1.023 1.515 2.201 1.998 3.533 0.482 1.331 0.724 2.826 0.724 4.487v0.117c0 1.774-0.29 3.394-0.869 4.865-0.579 1.466-1.409 2.759-2.49 3.878-1.312 1.274-2.954 2.267-4.921 2.983-1.97 0.713-4.229 1.07-6.777 1.07h-15.944l3.31-6.601h11.36c2.672 0 5.374-0.711 6.846-1.856 1.471-1.144 2.247-2.506 2.247-4.716v-0.117c0-2.092-0.756-3.751-2.266-4.972-1.511-1.222-3.543-1.831-6.099-1.831h-16.693l3.308-6.314h11.874l9.992-14.129h8.396z" fill="#fff" inkscape:connector-curvature="0" />
            </g>
            <g transform="translate(437.15 269.42)">
                <path d="m0 0h-6.602l-14.247-32.609 4.512-6.328 3.365 7.898 2.607 6.313 6.948 16.214 7.008-16.214 2.605-6.313 4.112-9.786h7.528z" fill="#fff" inkscape:connector-curvature="0" />
            </g>
            <g transform="translate(486.27 256.94)">
                <path d="m0 0c-1.042 2.451-2.52 4.584-4.43 6.398-1.911 1.815-4.19 3.235-6.833 4.256-2.645 1.024-5.551 1.535-8.716 1.535h-18.446l2.809-6.427h15.58c2.123 0 4.054-0.35 5.791-1.047 1.737-0.698 3.213-1.658 4.431-2.878 1.214-1.222 2.161-2.685 2.836-4.39 0.674-1.707 1.013-3.549 1.013-5.525v-0.116c0-1.978-0.339-3.81-1.013-5.496-0.675-1.687-1.622-3.141-2.836-4.362-1.218-1.222-2.694-2.172-4.431-2.849-1.737-0.679-3.668-1.018-5.791-1.018h-3.486l2.799-6.41c2.813 0.092 7.071 0.604 9.46 1.546 2.643 1.044 4.922 2.471 6.833 4.286 1.91 1.812 3.388 3.955 4.43 6.426 1.043 2.471 1.564 5.134 1.564 7.993v0.114c0 2.859-0.521 5.511-1.564 7.964" fill="#fff" inkscape:connector-curvature="0" />
            </g>
            <g transform="translate(496.8 246.05)">
                <path d="m0 0h15.676l3.309 6.427h-19.067c0.137-1.151 0.215-2.317 0.215-3.505v-0.114c0-0.948-0.045-1.884-0.133-2.808" fill="#fff" inkscape:connector-curvature="0" />
            </g>
            <g transform="translate(524.06 235.22)">
                <path d="m0 0h-30.629c-1.29-2.292-2.897-4.366-4.809-6.181-0.088-0.084-0.182-0.164-0.273-0.246h35.711z" fill="#fff" inkscape:connector-curvature="0" />
            </g>
            <g transform="translate(493.24 262.9)">
                <path d="m0 0h30.824v6.427h-36.096c0.221-0.198 0.444-0.391 0.658-0.594 1.819-1.729 3.358-3.686 4.614-5.833" fill="#fff" inkscape:connector-curvature="0" />
            </g>
            <g transform="translate(292.57 240.37)">
                <path d="m0 0c0.676 1.099 0.698 1.751-1.92 3.394-0.863 0.541-2.679 1.948-4.602 3.437-2.471 1.915-6.207 4.809-6.869 4.938-0.385-1e-3 -0.749-0.183-1.474-0.544-0.63-0.314-1.492-0.745-2.807-1.275-3.123-1.259-5.276-1.114-6.741 0.385-0.542 0.557-1.095 1.251-1.082 2.187 0.014 1.041 0.713 2.176 2.266 3.683 0.973 0.944 2.798 2.316 4.063 3.236-1.682-0.104-4.487-0.374-7.667-1.069l-4.335-12.012 0.217-0.217c0.599 0.418 1.855 1.154 3.257 1.154 1.001 0 2.397-0.391 3.5-2.196 0.097 7e-3 0.213 0.012 0.341 0.012 0.844 0 2.851-0.243 3.878-2.413 0.856-0.025 3.095-0.343 4.004-2.876 0.732-0.119 2.383-0.586 3.087-2.402 0.68-1.755 0.255-3.43-1.164-4.672 0.46-0.379 1.346-0.831 2.194-0.532 0.698 0.25 0.95 0.72 1.038 1.07 0.13 0.517-0.012 1.118-0.354 1.497l-0.078 0.081c-0.181 0.2-0.17 0.509 0.024 0.696 0.193 0.187 0.5 0.188 0.695-1e-3l0.021-0.022c6e-3 -6e-3 0.075-0.078 0.081-0.084 0.167-0.167 1.133-1.088 2.099-1.088 0.385 0 0.726 0.147 1.042 0.447 1.153 1.099 0.32 2.109 0.221 2.221-0.182 0.205-0.164 0.519 0.04 0.702 0.205 0.184 0.519 0.168 0.704-0.034 9e-3 -0.01 0.883-0.951 1.863-0.951 0.269 0 0.517 0.069 0.759 0.213 1.223 0.721 0.61 2.267 0.583 2.333-0.083 0.202-0.024 0.435 0.145 0.575 0.169 0.138 0.407 0.155 0.592 0.033 6e-3 -5e-3 0.713-0.46 1.406-0.46 0.431 0 0.74 0.176 0.973 0.554" fill="#00c0f3" inkscape:connector-curvature="0" />
            </g>
            <g transform="translate(279.29 259.54)">
                <path d="m0 0c-1.204 0.354-3.182-0.538-5.837-2.612-2.968-2.321-4.317-3.839-3.904-4.391 1.082-1.441 3.109-1.128 6.925 0.916 1.107 0.594 1.956 0.961 2.767 0.961 0.979 0 1.801-0.553 2.776-1.275 6.536-4.852 9.77-7.297 10.653-7.968l1.203 0.641-3.921 10.352c-1.43 0.46-9.097 2.922-10.662 3.376" fill="#fff" inkscape:connector-curvature="0" />
            </g>
            <g transform="translate(258.7 246.81)">
                <path d="m0 0 5.131 13.883-4.716 1.195-3.436-14.013z" fill="#00c0f3" inkscape:connector-curvature="0" />
            </g>
            <g transform="translate(277.47 237.57)">
                <path d="m0 0c-1.243 1.271-3.24 0.292-3.24 0.292s1.233 0.977-0.164 2.406c-1.399 1.43-3.653-0.033-3.653-0.033s1.295 1.188-0.142 2.657c-1.437 1.471-3.622-0.179-3.622-0.179 0.226 0.631 0.402 1.629-0.142 2.186-0.544 0.556-1.48 1.024-3.182 0.469-1.031-0.338-2.762-1.454-1.746-2.887 1.017-1.432 3.179-0.974 3.179-0.974s-1.797-0.635-0.074-2.24c1.722-1.604 3.793-0.269 3.793-0.269s-1.414-1.104-0.055-2.242c1.36-1.137 3.839-0.02 3.839-0.02-0.702-0.734-0.447-3.075 1.91-2.816 2.356 0.258 4.542 2.379 3.299 3.65" fill="#fff" inkscape:connector-curvature="0" />
            </g>
            <g transform="translate(291.87 258.71)">
                <path d="m0 0 5.244-13.867 2.86 1.143-3.75 13.906z" fill="#fff" inkscape:connector-curvature="0" />
            </g>
        </g>
        <g clip-path="url(#clipPath102)">
            <g transform="translate(398.45 533.45)">
                <path d="m0 0c0 20.51 16.625 37.138 37.138 37.138 10.308 0 19.633-4.203 26.363-10.986l24.497-25.379c-0.416 27.743-23.019 50.104-50.86 50.104-19.054 0-35.657-10.477-44.372-25.981h-17.663z" fill="#fff" inkscape:connector-curvature="0" />
            </g>
            <g transform="translate(435.59 482.57)">
                <path d="m0 0c19.055 0 35.656 10.476 44.373 25.983h17.663l-24.898 24.899c0-20.513-16.626-37.143-37.138-37.143-10.307 0-19.633 4.205-26.361 10.985l-24.499 25.381c0.415-27.742 23.021-50.105 50.86-50.105" fill="#00c0f3" inkscape:connector-curvature="0" />
            </g>
            <g transform="translate(370.15 455.43)">
                <path d="m0 0h-6.624l-1.601 3.195h14.719l1.6-3.195h-4.619v-16.424h-3.475z" fill="#fff" inkscape:connector-curvature="0" />
            </g>
            <path d="m454.8 458.62h5.465v-19.619h-5.465z" fill="#00c0f3" inkscape:connector-curvature="0" />
            <g transform="translate(470.25 453.86)">
                <path d="m0 0h-5.886v4.764h17.209v-4.764h-5.886v-14.855h-5.437z" fill="#00c0f3" inkscape:connector-curvature="0" />
            </g>
            <g transform="translate(491.36 448.25)">
                <path d="m0 0c-0.809 0-1.527 0.135-2.155 0.407-0.628 0.271-1.147 0.646-1.558 1.125-0.408 0.479-0.702 1.04-0.879 1.688-0.177 0.644-0.22 1.348-0.127 2.108l5e-3 0.027c0.089 0.721 0.304 1.408 0.647 2.059 0.342 0.65 0.782 1.221 1.32 1.709 0.536 0.487 1.148 0.875 1.842 1.16 0.691 0.287 1.426 0.431 2.205 0.431 0.454 0 0.862-0.033 1.222-0.097 0.364-0.064 0.695-0.156 0.997-0.273 0.301-0.118 0.581-0.266 0.841-0.437 0.26-0.173 0.51-0.372 0.747-0.599l-1.323-1.377c-0.176 0.168-0.358 0.32-0.55 0.459-0.189 0.137-0.393 0.255-0.609 0.348-0.215 0.093-0.456 0.167-0.719 0.222-0.264 0.054-0.56 0.081-0.886 0.081-0.473 0-0.927-0.1-1.359-0.296-0.435-0.198-0.822-0.464-1.164-0.794s-0.626-0.72-0.853-1.163c-0.228-0.444-0.372-0.915-0.432-1.41l-2e-3 -0.028c-0.067-0.535-0.045-1.03 0.067-1.483 0.112-0.455 0.303-0.846 0.572-1.172 0.271-0.326 0.608-0.585 1.013-0.77 0.405-0.19 0.872-0.282 1.406-0.282 0.489 0 0.96 0.071 1.404 0.214 0.447 0.146 0.842 0.335 1.185 0.574l0.242 1.95h-2.65l0.194 1.583h4.41l-0.535-4.35c-0.283-0.218-0.593-0.426-0.927-0.623-0.335-0.196-0.691-0.369-1.07-0.518-0.378-0.147-0.78-0.264-1.205-0.348-0.422-0.083-0.863-0.125-1.316-0.125" fill="#fff" inkscape:connector-curvature="0" />
            </g>
            <g transform="translate(502.96 448.25)">
                <path d="m0 0c-0.811 0-1.527 0.135-2.155 0.407-0.628 0.271-1.147 0.646-1.557 1.125-0.409 0.479-0.705 1.04-0.88 1.688-0.179 0.644-0.219 1.348-0.127 2.108l5e-3 0.027c0.088 0.721 0.304 1.408 0.648 2.059 0.342 0.65 0.783 1.221 1.318 1.709 0.538 0.487 1.15 0.875 1.842 1.16 0.69 0.287 1.427 0.431 2.205 0.431 0.454 0 0.864-0.033 1.224-0.097 0.363-0.064 0.695-0.156 0.996-0.273 0.3-0.118 0.582-0.266 0.84-0.437 0.262-0.173 0.509-0.372 0.748-0.599l-1.321-1.377c-0.178 0.168-0.362 0.32-0.552 0.459-0.191 0.137-0.394 0.255-0.608 0.348-0.216 0.093-0.456 0.167-0.72 0.222-0.265 0.054-0.559 0.081-0.885 0.081-0.474 0-0.928-0.1-1.361-0.296-0.434-0.198-0.821-0.464-1.163-0.794s-0.626-0.72-0.853-1.163c-0.227-0.444-0.371-0.915-0.431-1.41l-4e-3 -0.028c-0.065-0.535-0.043-1.03 0.068-1.483 0.113-0.455 0.302-0.846 0.573-1.172 0.269-0.326 0.606-0.585 1.012-0.77 0.404-0.19 0.872-0.282 1.404-0.282 0.492 0 0.962 0.071 1.407 0.214 0.445 0.146 0.84 0.335 1.185 0.574l0.24 1.95h-2.65l0.196 1.583h4.409l-0.533-4.35c-0.285-0.218-0.594-0.426-0.928-0.623-0.336-0.196-0.694-0.369-1.071-0.518-0.378-0.147-0.779-0.264-1.203-0.348-0.426-0.083-0.866-0.125-1.318-0.125" fill="#fff" inkscape:connector-curvature="0" />
            </g>
            <g transform="translate(485.42 441.81)">
                <path d="m0 0c0 1.496-1.213 2.707-2.707 2.707-1.495 0-2.707-1.211-2.707-2.707 0-1.493 1.212-2.706 2.707-2.706 1.494 0 2.707 1.213 2.707 2.706" fill="#fff" inkscape:connector-curvature="0" />
            </g>
            <g transform="translate(391.38 446.43)">
                <path d="m0 0c0.69 0.187 1.321 0.453 1.892 0.798 0.568 0.347 1.06 0.766 1.472 1.262 0.409 0.497 0.731 1.065 0.965 1.71 0.234 0.644 0.351 1.367 0.351 2.171v0.057c0 0.858-0.14 1.643-0.42 2.355-0.281 0.709-0.682 1.335-1.207 1.876-0.634 0.618-1.428 1.097-2.381 1.444-0.953 0.346-2.046 0.518-3.278 0.518h-7.717l1.6-3.195h5.499c1.292 0 2.6-0.344 3.312-0.897 0.712-0.554 1.088-1.214 1.088-2.284v-0.055c0-1.014-0.365-1.817-1.097-2.408-0.73-0.59-1.713-0.886-2.951-0.886h-8.08l1.601-3.056h5.747l4.836-6.838h4.064z" fill="#fff" inkscape:connector-curvature="0" />
            </g>
            <g transform="translate(408.73 458.76)">
                <path d="m0 0h-3.197l-6.894-15.783 2.183-3.063 1.629 3.824 1.262 3.055 3.362 7.846 3.392-7.846 1.261-3.055 1.99-4.738h3.643z" fill="#fff" inkscape:connector-curvature="0" />
            </g>
            <g transform="translate(432.51 452.72)">
                <path d="m0 0c-0.504 1.187-1.221 2.22-2.146 3.099-0.924 0.878-2.028 1.565-3.306 2.059-1.28 0.495-2.688 0.743-4.219 0.743h-8.926l1.359-3.11h7.541c1.026 0 1.961-0.17 2.802-0.508s1.554-0.803 2.143-1.392c0.589-0.592 1.047-1.299 1.374-2.125 0.326-0.825 0.49-1.718 0.49-2.674v-0.056c0-0.957-0.164-1.844-0.49-2.66-0.327-0.815-0.785-1.52-1.374-2.11-0.589-0.592-1.302-1.052-2.143-1.381-0.841-0.327-1.776-0.491-2.802-0.491h-1.688l1.355-3.104c1.36 0.045 3.422 0.294 4.578 0.75 1.278 0.504 2.382 1.196 3.306 2.073 0.925 0.877 1.642 1.914 2.146 3.111 0.504 1.195 0.756 2.485 0.756 3.868v0.054c0 1.385-0.252 2.668-0.756 3.854" fill="#fff" inkscape:connector-curvature="0" />
            </g>
            <g transform="translate(437.6 447.45)">
                <path d="m0 0h7.588l1.6 3.11h-9.227c0.065-0.556 0.103-1.12 0.103-1.696v-0.055c0-0.459-0.021-0.911-0.064-1.359" fill="#fff" inkscape:connector-curvature="0" />
            </g>
            <g transform="translate(450.79 442.21)">
                <path d="m0 0h-14.824c-0.623-1.11-1.402-2.113-2.327-2.991-0.043-0.042-0.088-0.08-0.132-0.119h17.283z" fill="#fff" inkscape:connector-curvature="0" />
            </g>
            <g transform="translate(435.88 455.61)">
                <path d="m0 0h14.918v3.11h-17.47c0.107-0.095 0.216-0.188 0.32-0.286 0.879-0.838 1.624-1.785 2.232-2.824" fill="#fff" inkscape:connector-curvature="0" />
            </g>
            <g transform="translate(453.04 522.57)">
                <path d="m0 0c0.826 1.343 0.854 2.141-2.349 4.15-1.055 0.662-3.277 2.384-5.629 4.204-3.023 2.344-7.591 5.882-8.402 6.041-0.471 0-0.916-0.223-1.803-0.665-0.77-0.384-1.825-0.91-3.433-1.56-3.821-1.538-6.454-1.361-8.245 0.471-0.664 0.68-1.34 1.531-1.325 2.675 0.019 1.274 0.873 2.662 2.772 4.506 1.191 1.155 3.422 2.833 4.97 3.959-2.057-0.129-5.489-0.459-9.378-1.309l-5.303-14.693 0.266-0.265c0.733 0.511 2.269 1.412 3.984 1.412 1.224 0 2.932-0.478 4.281-2.688 0.119 0.01 0.26 0.017 0.418 0.017 1.03 0 3.487-0.299 4.743-2.953 1.046-0.031 3.785-0.418 4.898-3.517 0.894-0.145 2.914-0.717 3.774-2.938 0.834-2.148 0.313-4.196-1.424-5.714 0.564-0.464 1.649-1.019 2.686-0.653 0.853 0.306 1.161 0.881 1.269 1.309 0.16 0.634-0.015 1.369-0.433 1.833l-0.096 0.098c-0.22 0.246-0.208 0.623 0.029 0.85 0.237 0.23 0.613 0.232 0.85 0l0.026-0.026c8e-3 -7e-3 0.092-0.096 0.099-0.103 0.205-0.206 1.387-1.331 2.567-1.331 0.471 0 0.89 0.18 1.277 0.547 1.409 1.343 0.39 2.578 0.268 2.717-0.221 0.251-0.199 0.633 0.049 0.857 0.251 0.225 0.636 0.206 0.862-0.04 0.01-0.012 1.08-1.164 2.28-1.164 0.327 0 0.631 0.084 0.927 0.261 1.496 0.882 0.746 2.774 0.713 2.853-0.101 0.248-0.029 0.532 0.178 0.704 0.205 0.168 0.497 0.189 0.724 0.041 7e-3 -7e-3 0.872-0.564 1.72-0.564 0.527 0 0.906 0.215 1.19 0.678" fill="#00c0f3" inkscape:connector-curvature="0" />
            </g>
            <g transform="translate(436.79 546.02)">
                <path d="m0 0c-1.473 0.433-3.893-0.659-7.141-3.196-3.629-2.838-5.279-4.695-4.774-5.371 1.322-1.763 3.802-1.378 8.471 1.121 1.353 0.726 2.391 1.175 3.383 1.175 1.199 0 2.205-0.676 3.397-1.56 7.994-5.935 11.949-8.926 13.03-9.745l1.471 0.784-4.796 12.661c-1.749 0.565-11.127 3.574-13.041 4.131" fill="#fff" inkscape:connector-curvature="0" />
            </g>
            <g transform="translate(411.6 530.45)">
                <path d="m0 0 6.276 16.981-5.769 1.462-4.2-17.141z" fill="#00c0f3" inkscape:connector-curvature="0" />
            </g>
            <g transform="translate(434.56 519.14)">
                <path d="m0 0c-1.52 1.555-3.963 0.358-3.963 0.358s1.509 1.195-0.201 2.944c-1.711 1.749-4.467-0.041-4.467-0.041s1.583 1.453-0.174 3.249c-1.757 1.799-4.43-0.22-4.43-0.22 0.276 0.774 0.491 1.995-0.175 2.676-0.664 0.679-1.811 1.252-3.891 0.573-1.262-0.413-3.379-1.779-2.136-3.531 1.245-1.751 3.889-1.192 3.889-1.192s-2.198-0.776-0.091-2.74c2.105-1.962 4.64-0.33 4.64-0.33s-1.73-1.35-0.067-2.742c1.663-1.391 4.694-0.025 4.694-0.025-0.857-0.898-0.545-3.759 2.337-3.444 2.882 0.318 5.557 2.909 4.035 4.465" fill="#fff" inkscape:connector-curvature="0" />
            </g>
            <g transform="translate(452.18 545)">
                <path d="m0 0 6.415-16.962 3.497 1.398-4.586 17.01z" fill="#fff" inkscape:connector-curvature="0" />
            </g>
        </g>
    </g>
</svg>
