<svg width="209" height="34" viewBox="0 0 209 34" fill="none" xmlns="http://www.w3.org/2000/svg">
<path d="M11.4698 27.0467C11.4665 27.05 11.4615 27.055 11.4581 27.0584C11.4498 27.0667 11.4431 27.0734 11.4365 27.0817C11.3631 27.1584 11.2914 27.2302 11.2163 27.3019C11.213 27.3052 11.2063 27.3102 11.203 27.3135C11.143 27.3702 11.0829 27.4269 11.0212 27.4786C11.0095 27.4903 10.9979 27.5003 10.9862 27.5086C10.9628 27.5303 10.9378 27.5503 10.9128 27.572C10.8595 27.6187 10.8044 27.6621 10.7477 27.7054C10.7427 27.7088 10.736 27.7138 10.7327 27.7188C10.701 27.7421 10.6693 27.7671 10.6377 27.7921C10.5509 27.8555 10.4626 27.9189 10.3725 27.9823C10.3041 28.029 10.2324 28.074 10.1607 28.1173C10.0123 28.2107 9.86054 28.2974 9.70378 28.3758C9.65709 28.4008 9.61206 28.4242 9.5637 28.4459C9.517 28.4692 9.47031 28.4892 9.42195 28.5109C9.41361 28.5142 9.40694 28.5192 9.3986 28.5226C9.35858 28.5393 9.31856 28.5593 9.27853 28.5743C9.23017 28.5959 9.18181 28.6143 9.13345 28.6343C8.80659 28.7627 8.46973 28.8661 8.11953 28.9395C8.07283 28.9495 8.02614 28.9578 7.98111 28.9662C7.80101 29.0012 7.6209 29.0279 7.43746 29.0462C7.38577 29.0512 7.33407 29.0562 7.28237 29.0596C7.27237 29.0612 7.26069 29.0612 7.25069 29.0612C7.15897 29.0696 7.06725 29.0746 6.97386 29.0762C6.90715 29.0779 6.83878 29.0796 6.76874 29.0796C6.67535 29.0796 6.58196 29.0779 6.49024 29.0746C6.41687 29.0712 6.34516 29.0662 6.27345 29.0612C6.19174 29.0562 6.10836 29.0479 6.02831 29.0379C5.95827 29.0295 5.88656 29.0212 5.81652 29.0095C5.69978 28.9928 5.58472 28.9728 5.46965 28.9495C5.39461 28.9345 5.32123 28.9161 5.24785 28.8978C5.21784 28.8928 5.18615 28.8845 5.1578 28.8761C5.08109 28.8578 5.00605 28.8361 4.93267 28.8127C4.85429 28.7894 4.77758 28.7644 4.70087 28.7394C4.6892 28.736 4.67919 28.731 4.66918 28.7277C4.58747 28.6993 4.50742 28.671 4.42738 28.6393C4.41404 28.6343 4.40069 28.6276 4.38735 28.6226C4.30897 28.5926 4.23226 28.5593 4.15555 28.5259C4.07217 28.4892 3.98879 28.4509 3.90707 28.4092C3.82036 28.3675 3.73698 28.3225 3.65193 28.2774C3.57521 28.2357 3.50017 28.1907 3.42846 28.1474C3.20667 28.0139 2.99321 27.8639 2.78809 27.7038C2.76474 27.6871 2.74306 27.6671 2.71805 27.6487C2.67969 27.6187 2.64301 27.587 2.60799 27.557C2.5713 27.5253 2.53294 27.4936 2.49959 27.462C2.44956 27.4203 2.40287 27.3752 2.3545 27.3302C2.11937 27.1084 1.89924 26.8699 1.70079 26.6148C1.66077 26.5648 1.62074 26.5131 1.58239 26.4597C1.46732 26.3046 1.36059 26.1429 1.25887 25.9778C0.881981 25.3557 0.606821 24.667 0.455066 23.9332C0.44506 23.8815 0.433387 23.8282 0.425049 23.7765C0.356676 23.4063 0.321655 23.0244 0.321655 22.6341L0.326658 9.37139V9.288C0.326658 9.1696 0.329993 9.05287 0.339999 8.93613C0.343335 8.8811 0.350005 8.82774 0.355008 8.77104C0.355008 8.75603 0.356676 8.74269 0.358343 8.72935C0.363346 8.68265 0.370017 8.63929 0.376687 8.59427C0.388361 8.51422 0.403369 8.43584 0.418378 8.35913C0.435055 8.28242 0.453399 8.20571 0.47341 8.12899C0.491754 8.05228 0.515101 7.97724 0.538448 7.90386C0.561795 7.83049 0.58681 7.76045 0.613492 7.69207C0.616827 7.67873 0.62183 7.66706 0.626833 7.65538C0.643509 7.60702 0.663521 7.56033 0.683532 7.51197C0.706879 7.4586 0.730226 7.40691 0.753573 7.35521C0.77025 7.31519 0.790261 7.27683 0.810273 7.23847C0.831952 7.19178 0.853631 7.14842 0.878646 7.10506C0.910331 7.04503 0.945351 6.98666 0.980372 6.92663C1.78417 5.60419 3.23668 4.72034 4.89432 4.72034C7.41745 4.72034 9.46364 6.76653 9.46364 9.288L9.46031 16.769V16.7774L9.45864 21.5302C9.45864 22.1889 9.40694 22.8759 9.44196 23.533C9.44029 23.5463 9.44029 23.5613 9.44029 23.5747C9.44029 23.6481 9.44196 23.7214 9.44863 23.7931C9.45197 23.8599 9.45697 23.9266 9.46364 23.9933C9.47698 24.1267 9.49699 24.2567 9.52368 24.3868C9.53368 24.4335 9.54202 24.4785 9.55536 24.5252C9.57704 24.6136 9.59872 24.6987 9.62874 24.7854C9.63207 24.8021 9.63874 24.8204 9.64541 24.8388C9.69544 24.9872 9.75381 25.1339 9.82052 25.274C9.83719 25.3124 9.8572 25.3507 9.87555 25.3874C9.88055 25.4008 9.88722 25.4124 9.89723 25.4258C9.91891 25.4675 9.93892 25.5075 9.96393 25.5475C9.97727 25.5742 9.99228 25.6009 10.0106 25.6275C10.0356 25.6676 10.0607 25.7076 10.0857 25.746C10.0907 25.7543 10.0973 25.7626 10.1023 25.7726C10.129 25.8127 10.154 25.8493 10.1824 25.8877C10.2007 25.9161 10.2207 25.9427 10.2424 25.9694C10.3542 26.1162 10.4742 26.2546 10.6043 26.3847C10.6327 26.413 10.661 26.4414 10.6927 26.468C10.7194 26.4947 10.7461 26.5197 10.7727 26.5431C10.7844 26.5564 10.7977 26.5681 10.8111 26.5781C10.8411 26.6048 10.8711 26.6298 10.9028 26.6565C10.9395 26.6865 10.9779 26.7165 11.0162 26.7449C11.0629 26.7816 11.1096 26.8149 11.158 26.8483C11.2563 26.92 11.3614 26.985 11.4698 27.0467Z" fill="#1BB394"/>
<path d="M23.6486 27.0468C23.6452 27.0501 23.6402 27.0551 23.6369 27.0584C23.6286 27.0668 23.6219 27.0734 23.6152 27.0818C23.5418 27.1585 23.4701 27.2302 23.3951 27.3019C23.3918 27.3052 23.3851 27.3102 23.3818 27.3136C23.3217 27.3703 23.2617 27.427 23.2 27.4787C23.1883 27.4904 23.1766 27.5004 23.165 27.5087C23.1416 27.5304 23.1166 27.5504 23.0916 27.5721C23.0382 27.6188 22.9832 27.6621 22.9265 27.7055C22.9215 27.7088 22.9148 27.7138 22.9115 27.7188C22.8798 27.7422 22.8481 27.7672 22.8164 27.7922C22.7297 27.8556 22.6413 27.9189 22.5513 27.9823C22.4829 28.029 22.4112 28.074 22.3395 28.1174C22.1911 28.2108 22.0393 28.2975 21.8826 28.3759C21.8359 28.4009 21.7908 28.4242 21.7425 28.4459C21.6958 28.4693 21.6491 28.4893 21.6007 28.5109C21.5924 28.5143 21.5857 28.5193 21.5774 28.5226C21.5374 28.5393 21.4973 28.5593 21.4573 28.5743C21.4089 28.596 21.3606 28.6143 21.3122 28.6344C20.9854 28.7628 20.6485 28.8662 20.2983 28.9395C20.2516 28.9495 20.2049 28.9579 20.1599 28.9662C19.9798 29.0012 19.7997 29.0279 19.6162 29.0463C19.5645 29.0513 19.5128 29.0563 19.4611 29.0596C19.4511 29.0613 19.4395 29.0613 19.4295 29.0613C19.3377 29.0696 19.246 29.0746 19.1526 29.0763C19.0859 29.0779 19.0176 29.0796 18.9475 29.0796C18.8541 29.0796 18.7607 29.0779 18.669 29.0746C18.5956 29.0713 18.5239 29.0663 18.4522 29.0613C18.3705 29.0563 18.2871 29.0479 18.2071 29.0379C18.137 29.0296 18.0653 29.0212 17.9953 29.0096C17.8786 28.9929 17.7635 28.9729 17.6484 28.9495C17.5734 28.9345 17.5 28.9162 17.4266 28.8978C17.3966 28.8928 17.3649 28.8845 17.3366 28.8762C17.2599 28.8578 17.1848 28.8361 17.1114 28.8128C17.0331 28.7894 16.9564 28.7644 16.8796 28.7394C16.868 28.7361 16.858 28.7311 16.848 28.7277C16.7662 28.6994 16.6862 28.671 16.6061 28.6394C16.5928 28.6344 16.5795 28.6277 16.5661 28.6227C16.4877 28.5927 16.411 28.5593 16.3343 28.526C16.2509 28.4893 16.1676 28.4509 16.0858 28.4092C15.9991 28.3675 15.9157 28.3225 15.8307 28.2775C15.754 28.2358 15.6789 28.1908 15.6072 28.1474C15.3854 28.014 15.172 27.8639 14.9669 27.7038C14.9435 27.6871 14.9218 27.6671 14.8968 27.6488C14.8585 27.6188 14.8218 27.5871 14.7868 27.5571C14.7501 27.5254 14.7117 27.4937 14.6784 27.462C14.6283 27.4203 14.5816 27.3753 14.5333 27.3303C14.2981 27.1085 14.078 26.87 13.8796 26.6148C13.8395 26.5648 13.7995 26.5131 13.7612 26.4598C13.6461 26.3047 13.5394 26.1429 13.4376 25.9778C13.0608 25.3558 12.7856 24.667 12.6338 23.9333C12.6238 23.8816 12.6122 23.8282 12.6038 23.7765C12.5354 23.4063 12.5004 23.0244 12.5004 22.6342L12.5054 9.37143V9.28805C12.5054 9.16965 12.5088 9.05291 12.5188 8.93618C12.5221 8.88114 12.5288 8.82778 12.5338 8.77108C12.5338 8.75607 12.5354 8.74273 12.5371 8.72939C12.5421 8.68269 12.5488 8.63934 12.5555 8.59431C12.5671 8.51426 12.5821 8.43588 12.5972 8.35917C12.6138 8.28246 12.6322 8.20575 12.6522 8.12904C12.6705 8.05233 12.6939 7.97728 12.7172 7.90391C12.7406 7.83053 12.7656 7.76049 12.7923 7.69211C12.7956 7.67877 12.8006 7.6671 12.8056 7.65543C12.8223 7.60707 12.8423 7.56037 12.8623 7.51201C12.8857 7.45865 12.909 7.40695 12.9323 7.35525C12.949 7.31523 12.969 7.27687 12.989 7.23852C13.0107 7.19182 13.0324 7.14846 13.0574 7.10511C13.0891 7.04507 13.1241 6.9867 13.1591 6.92667C13.9579 5.6059 15.4105 4.72205 17.0681 4.72205C19.5912 4.72205 21.6374 6.76824 21.6374 9.28972L21.6341 16.7708V16.7791L21.6324 21.5319C21.6324 22.1906 21.5807 22.8777 21.6157 23.5347C21.6141 23.548 21.6141 23.5631 21.6141 23.5764C21.6141 23.6498 21.6157 23.7231 21.6224 23.7949C21.6257 23.8616 21.6307 23.9283 21.6374 23.995C21.6507 24.1284 21.6708 24.2585 21.6974 24.3885C21.7074 24.4352 21.7158 24.4803 21.7291 24.527C21.7508 24.6153 21.7725 24.7004 21.8025 24.7871C21.8058 24.8038 21.8125 24.8221 21.8192 24.8405C21.8692 24.9889 21.9276 25.1356 21.9943 25.2757C22.011 25.3141 22.031 25.3524 22.0493 25.3891C22.0543 25.4025 22.061 25.4141 22.071 25.4275C22.0927 25.4692 22.1127 25.5092 22.1377 25.5492C22.151 25.5759 22.1661 25.6026 22.1844 25.6293C22.2094 25.6693 22.2344 25.7093 22.2594 25.7477C22.2644 25.756 22.2711 25.7643 22.2761 25.7743C22.3028 25.8144 22.3278 25.8511 22.3562 25.8894C22.3745 25.9178 22.3945 25.9444 22.4162 25.9711C22.5279 26.1179 22.648 26.2563 22.7781 26.3864C22.8064 26.4147 22.8348 26.4431 22.8665 26.4698C22.8931 26.4964 22.9198 26.5215 22.9465 26.5448C22.9582 26.5581 22.9715 26.5698 22.9849 26.5798C23.0149 26.6065 23.0449 26.6315 23.0766 26.6582C23.1133 26.6882 23.1516 26.7182 23.19 26.7466C23.2367 26.7833 23.2834 26.8166 23.3317 26.85C23.4351 26.92 23.5402 26.9851 23.6486 27.0468Z" fill="#1BB394"/>
<path d="M29.2435 26.0178C26.722 26.0178 24.6775 23.9733 24.6775 21.4518V9.28634C24.6775 6.76486 26.722 4.72034 29.2435 4.72034C31.765 4.72034 33.8095 6.76486 33.8095 9.28634V21.4501C33.8095 23.9733 31.765 26.0178 29.2435 26.0178Z" fill="#1BB394"/>
<path d="M106.527 24.867C102.742 24.867 100.023 22.5874 100.023 19.4506H103.182C103.182 21.0615 104.625 22.2105 106.632 22.2105C108.347 22.2105 109.414 21.3533 109.414 20.161C109.414 18.7602 107.803 18.55 105.964 18.3199C103.015 17.943 100.17 17.316 100.17 13.844C100.17 10.9373 102.658 8.92944 106.256 8.92944C109.873 8.92944 112.488 11.104 112.488 14.0941H109.434C109.456 12.6299 108.138 11.5843 106.339 11.5843C104.686 11.5843 103.599 12.3581 103.599 13.4454C103.599 14.8462 105.083 15.0563 106.966 15.3065C109.851 15.6417 112.843 16.2687 112.843 19.6974C112.843 22.7558 110.313 24.867 106.527 24.867Z" fill="#041E39"/>
<path d="M59.153 21.7569L62.505 8.93274H66.3255L61.9913 24.8404H56.5832L53.8799 13.6021L51.1767 24.8404H45.7469L41.4127 8.93274H45.2332L48.6285 21.7569L51.8237 8.93274H55.9795L59.153 21.7569Z" fill="#041E39"/>
<path d="M72.4908 21.8253H80.267V24.842H68.872V8.93274H80.0435V11.9495H72.4908V15.3448H79.1497V18.0264H72.4908V21.8253Z" fill="#041E39"/>
<path d="M83.127 24.8404V8.93274H90.8348C94.1418 8.93274 96.4648 10.7655 96.4648 13.2453C96.4648 14.8762 95.5259 16.1953 94.1635 16.5739C95.7944 16.9758 96.9117 18.5183 96.9117 20.4161C96.9117 23.0743 94.5203 24.8404 91.1033 24.8404H83.127ZM86.8809 11.7711V15.3231H90.1661C91.5953 15.3231 92.6242 14.6077 92.6242 13.5588C92.6242 12.5098 91.597 11.7711 90.1661 11.7711H86.8809V11.7711ZM90.3429 17.8696H86.8792V22.0037H90.3429C91.9288 22.0037 93.0695 21.1549 93.0695 19.9708C93.0695 18.7418 91.9288 17.8696 90.3429 17.8696Z" fill="#041E39"/>
<path d="M115.993 24.8404V8.93274H119.747V15.0763H126.316V8.93274H130.069V24.8404H126.316V18.1164H119.747V24.842H115.993V24.8404Z" fill="#041E39"/>
<path d="M136.213 24.8404H132.259L137.599 8.93274H143.05L148.368 24.8404H144.436L143.564 22.2038H137.085L136.213 24.8404ZM137.822 19.5239H142.827L140.324 12.1513L137.822 19.5239Z" fill="#041E39"/>
<path d="M154.334 24.8404H150.58V8.93274H158.288C161.975 8.93274 164.543 11.1224 164.543 14.2959C164.543 16.4405 163.135 18.2282 161.058 18.8986L164.9 24.842H160.699L157.571 19.3905H154.33V24.8404H154.334ZM154.334 11.7711V16.754H157.686C159.45 16.754 160.791 15.7701 160.791 14.2959C160.791 12.6866 159.45 11.7711 157.686 11.7711H154.334Z" fill="#041E39"/>
<path d="M171.404 21.8253H179.18V24.842H167.785V8.93274H178.956V11.9495H171.404V15.3448H178.062V18.0264H171.404V21.8253Z" fill="#041E39"/>
<path d="M181.273 12.4915C181.273 11.9879 181.362 11.5203 181.539 11.0886C181.717 10.6528 181.958 10.274 182.263 9.95239C182.568 9.63501 182.925 9.38534 183.336 9.20337C183.746 9.0214 184.184 8.93042 184.65 8.93042C185.115 8.93042 185.553 9.0214 185.964 9.20337C186.374 9.38534 186.732 9.63501 187.036 9.95239C187.341 10.274 187.582 10.6528 187.76 11.0886C187.938 11.5203 188.027 11.9879 188.027 12.4915C188.027 12.995 187.938 13.4648 187.76 13.9006C187.582 14.3323 187.341 14.7089 187.036 15.0305C186.732 15.3521 186.374 15.6039 185.964 15.7859C185.553 15.9679 185.115 16.0588 184.65 16.0588C184.184 16.0588 183.746 15.9679 183.336 15.7859C182.925 15.6039 182.568 15.3521 182.263 15.0305C181.958 14.7089 181.717 14.3323 181.539 13.9006C181.362 13.4648 181.273 12.995 181.273 12.4915ZM181.85 12.4915C181.85 12.9104 181.922 13.3018 182.066 13.6658C182.214 14.0255 182.415 14.3386 182.669 14.6052C182.923 14.8718 183.219 15.0813 183.558 15.2336C183.901 15.386 184.265 15.4622 184.65 15.4622C185.035 15.4622 185.397 15.386 185.735 15.2336C186.078 15.0813 186.376 14.8718 186.63 14.6052C186.884 14.3386 187.083 14.0255 187.227 13.6658C187.375 13.3018 187.449 12.9104 187.449 12.4915C187.449 12.0725 187.375 11.6832 187.227 11.3235C187.083 10.9596 186.884 10.6443 186.63 10.3777C186.376 10.1111 186.078 9.90373 185.735 9.75562C185.397 9.60327 185.035 9.5271 184.65 9.5271C184.265 9.5271 183.901 9.60327 183.558 9.75562C183.219 9.90373 182.923 10.1111 182.669 10.3777C182.415 10.6443 182.214 10.9596 182.066 11.3235C181.922 11.6832 181.85 12.0725 181.85 12.4915ZM183.964 12.8533V14.4529H183.247V10.4094H184.586C185.056 10.4094 185.431 10.511 185.71 10.7141C185.993 10.9172 186.135 11.224 186.135 11.6345C186.135 11.8715 186.061 12.0725 185.913 12.2375C185.765 12.4026 185.551 12.5338 185.272 12.6311L186.199 14.4529H185.462L184.72 12.8533H183.964ZM183.964 12.2122H184.688C184.781 12.2122 184.872 12.1995 184.961 12.1741C185.05 12.1487 185.128 12.1127 185.196 12.0662C185.263 12.0196 185.316 11.9625 185.354 11.8948C185.397 11.8271 185.418 11.7488 185.418 11.6599C185.418 11.4272 185.356 11.2664 185.234 11.1775C185.111 11.0886 184.895 11.0442 184.586 11.0442H183.964V12.2122Z" fill="#041E39"/>
</svg>
